<?xml version="1.0" encoding="utf-8"?>
<svg version="1.1" id="_x31_" xmlns="http://www.w3.org/2000/svg" xmlns:xlink="http://www.w3.org/1999/xlink" x="0px" y="0px"
	 viewBox="0 0 345.8 405.3" style="enable-background:new 0 0 345.8 405.3;" xml:space="preserve">
<style type="text/css">
	.st0{fill:#24C9AC;}
</style>
<path id="_x32_" class="st0" d="M81,145.7c-13.2,0-24,10.8-24,24s10.8,24,24,24c13.3,0,24-10.8,24-24S94.2,145.7,81,145.7z M81,186
	c-9,0-16.3-7.3-16.3-16.3S72,153.4,81,153.4s16.3,7.3,16.3,16.3S90,186,81,186z M210.9,145.7c-13.2,0-24,10.8-24,24s10.8,24,24,24
	s24-10.8,24-24S224.1,145.7,210.9,145.7z M210.9,186c-9,0-16.3-7.3-16.3-16.3s7.3-16.3,16.3-16.3s16.3,7.3,16.3,16.3
	S219.9,186,210.9,186z M160,218.6h-28.3c-2.1,0-3.8,1.7-3.8,3.8s1.7,3.8,3.8,3.8h10.7l-0.9,14.8c0,1,0.3,2,1,2.8s1.6,1.2,2.6,1.3
	h0.2c2,0,3.7-1.6,3.8-3.6l0.9-15.3h10c2.1,0,3.8-1.7,3.8-3.8S162.1,218.6,160,218.6z M210.9,145.7c-13.2,0-24,10.8-24,24
	s10.8,24,24,24s24-10.8,24-24S224.1,145.7,210.9,145.7z M210.9,186c-9,0-16.3-7.3-16.3-16.3s7.3-16.3,16.3-16.3s16.3,7.3,16.3,16.3
	S219.9,186,210.9,186z M160,218.6h-28.3c-2.1,0-3.8,1.7-3.8,3.8s1.7,3.8,3.8,3.8h10.7l-0.9,14.8c0,1,0.3,2,1,2.8s1.6,1.2,2.6,1.3
	h0.2c2,0,3.7-1.6,3.8-3.6l0.9-15.3h10c2.1,0,3.8-1.7,3.8-3.8S162.1,218.6,160,218.6z M81,145.7c-13.2,0-24,10.8-24,24s10.8,24,24,24
	c13.3,0,24-10.8,24-24S94.2,145.7,81,145.7z M81,186c-9,0-16.3-7.3-16.3-16.3S72,153.4,81,153.4s16.3,7.3,16.3,16.3S90,186,81,186z
	 M333.1,337.1c-8.6-16.2-18.4-34.6-18.4-63.7c0-49.3,28-66.9,29.2-67.7c1.8-1.1,2.4-3.5,1.3-5.3c-0.7-1.2-1.9-1.9-3.3-1.9
	c-0.7,0-1.4,0.2-2,0.5c-1.3,0.8-32.9,20.3-32.9,74.4c0,31,10.7,51.1,19.3,67.3c6.3,11.9,11.8,22.2,11.8,34c0,9-2.1,15.5-6.2,19.2
	c-3.5,3.1-7.6,3.6-9.7,3.6h-39.4l4.2-6.5c3.1-5,4.8-10.7,4.8-16.5V9.3c0-1.7-1.1-3.2-2.8-3.7c-0.3-0.1-0.7-0.1-1-0.1
	c-1.3,0-2.6,0.8-3.3,1.9L243.9,75h-2.5c-12.2-0.2-48.9-0.5-154.5-0.5c-22.4,0-33.9,0.1-39.5,0.1h-2.6L7.2,2.1C6.6,0.8,5.2,0,3.8,0
	C3.5,0,3.2,0,2.9,0.1C1.2,0.5,0,2,0,3.8v370.8c0,16.9,13.8,30.7,30.7,30.7h289.8c0.5,0.1,1.2,0.1,1.8,0.1c3.2,0,9.3-0.7,14.4-5.5
	c6-5.2,9.1-13.7,9.1-25.2C345.8,361,339.6,349.4,333.1,337.1z M261.3,397.6H30.7c-12.7,0-23-10.3-23-23v-355l31.4,60.7
	c0.7,1.3,2.1,2.1,3.5,2.1c0.1,0,0.4,0,0.4,0c1.8-0.1,14.3-0.1,44.1-0.1c61.9,0,152.1,0.2,158.5,0.5h0.6c1.3,0,2.6-0.8,3.3-1.9
	l34.8-57.6v351.4C284.3,387.3,274,397.6,261.3,397.6z M210.9,145.7c-13.2,0-24,10.8-24,24s10.8,24,24,24s24-10.8,24-24
	S224.1,145.7,210.9,145.7z M210.9,186c-9,0-16.3-7.3-16.3-16.3s7.3-16.3,16.3-16.3s16.3,7.3,16.3,16.3S219.9,186,210.9,186z
	 M160,218.6h-28.3c-2.1,0-3.8,1.7-3.8,3.8s1.7,3.8,3.8,3.8h10.7l-0.9,14.8c0,1,0.3,2,1,2.8s1.6,1.2,2.6,1.3h0.2c2,0,3.7-1.6,3.8-3.6
	l0.9-15.3h10c2.1,0,3.8-1.7,3.8-3.8S162.1,218.6,160,218.6z M81,145.7c-13.2,0-24,10.8-24,24s10.8,24,24,24c13.3,0,24-10.8,24-24
	S94.2,145.7,81,145.7z M81,186c-9,0-16.3-7.3-16.3-16.3S72,153.4,81,153.4s16.3,7.3,16.3,16.3S90,186,81,186z"/>
</svg>
