<?xml version="1.0" encoding="utf-8"?>
<svg version="1.1" id="_x31_" xmlns="http://www.w3.org/2000/svg" xmlns:xlink="http://www.w3.org/1999/xlink" x="0px" y="0px"
	 viewBox="0 0 382.1 382.1" style="enable-background:new 0 0 382.1 382.1;" xml:space="preserve">
<style type="text/css">
	.st0{fill:#1C2120;}
	.st1{fill:#FFFFFF;}
</style>
<circle id="_x33_" class="st0" cx="191.1" cy="191.1" r="191.1"/>
<path id="_x32_" class="st1" d="M275,107.4H107c-14.4,0-26.1,11.3-26.1,25.1v117.1c0,13.8,11.7,25.1,26.1,25.1h168
	c14.4,0,26.1-11.3,26.1-25.1V132.5C301.2,118.7,289.5,107.4,275,107.4z M275,252.5H107c-2.1,0-4-1.4-4-2.9V148l76,64.1
	c1.6,1.3,3.5,2,5.6,2h12.8c2,0,4-0.7,5.6-2l76-64.1v101.6C279,251.2,277.2,252.5,275,252.5z M191.1,192.2l-73.9-62.6H265
	L191.1,192.2z"/>
</svg>
