<?xml version="1.0" encoding="utf-8"?>
<svg version="1.1" id="Layer_1" xmlns="http://www.w3.org/2000/svg" xmlns:xlink="http://www.w3.org/1999/xlink" x="0px" y="0px"
	 viewBox="0 0 240.2 240.2" style="enable-background:new 0 0 240.2 240.2;" xml:space="preserve">
<style type="text/css">
	.st0{fill:url(#_x36__1_);}
	.st1{fill-rule:evenodd;clip-rule:evenodd;fill:#FFFFFF;}
	.st2{fill:#DB3653;}
	.st3{fill:#FFD782;}
	.st4{fill:#FFC36E;}
</style>
<linearGradient id="_x36__1_" gradientUnits="userSpaceOnUse" x1="49.9168" y1="45.8764" x2="198.5637" y2="203.0786">
	<stop  offset="0" style="stop-color:#323232"/>
	<stop  offset="0.3412" style="stop-color:#000000"/>
	<stop  offset="0.7496" style="stop-color:#000000"/>
	<stop  offset="1" style="stop-color:#1E1E1E"/>
</linearGradient>
<circle id="_x36_" class="st0" cx="120.1" cy="120.1" r="120.1"/>
<path id="_x35_" class="st1" d="M58.7,189h10c0.4,0,0.7,0.3,0.7,0.7v6.4c0,0.4-0.3,0.7-0.7,0.7h-10c-0.4,0-0.7-0.3-0.7-0.7v-6.4
	C58,189.3,58.3,189,58.7,189 M58.7,172.7h10c0.4,0,0.7,0.3,0.7,0.7v6.4c0,0.4-0.3,0.7-0.7,0.7h-10c-0.4,0-0.7-0.3-0.7-0.7v-6.4
	C58,173,58.3,172.7,58.7,172.7 M58.7,156.5h10c0.4,0,0.7,0.3,0.7,0.7v6.4c0,0.4-0.3,0.7-0.7,0.7h-10c-0.4,0-0.7-0.3-0.7-0.7v-6.4
	C58,156.8,58.3,156.5,58.7,156.5 M58.7,140.2h10c0.4,0,0.7,0.3,0.7,0.7v6.4c0,0.4-0.3,0.7-0.7,0.7h-10c-0.4,0-0.7-0.3-0.7-0.7v-6.4
	C58,140.5,58.3,140.2,58.7,140.2 M58.7,123.9h10c0.4,0,0.7,0.3,0.7,0.7v6.4c0,0.4-0.3,0.7-0.7,0.7h-10c-0.4,0-0.7-0.3-0.7-0.7v-6.4
	C58,124.2,58.3,123.9,58.7,123.9 M58.7,107.6h10c0.4,0,0.7,0.3,0.7,0.7v6.4c0,0.4-0.3,0.7-0.7,0.7h-10c-0.4,0-0.7-0.3-0.7-0.7v-6.4
	C58,108,58.3,107.6,58.7,107.6 M58.7,91.4h10c0.4,0,0.7,0.3,0.7,0.7v6.4c0,0.4-0.3,0.7-0.7,0.7h-10c-0.4,0-0.7-0.3-0.7-0.7v-6.4
	C58,91.7,58.3,91.4,58.7,91.4 M58.7,75.1h10c0.4,0,0.7,0.3,0.7,0.7v6.4c0,0.4-0.3,0.7-0.7,0.7h-10c-0.4,0-0.7-0.3-0.7-0.7v-6.4
	C58,75.4,58.3,75.1,58.7,75.1 M58.7,58.8h10c0.4,0,0.7,0.3,0.7,0.7v6.4c0,0.4-0.3,0.7-0.7,0.7h-10c-0.4,0-0.7-0.3-0.7-0.7v-6.4
	C58,59.1,58.3,58.8,58.7,58.8 M58.7,42.6h10c0.4,0,0.7,0.3,0.7,0.7v6.4c0,0.4-0.3,0.7-0.7,0.7h-10c-0.4,0-0.7-0.3-0.7-0.7v-6.4
	C58,42.9,58.3,42.6,58.7,42.6 M171.6,189h10c0.4,0,0.7,0.3,0.7,0.7v6.4c0,0.4-0.3,0.7-0.7,0.7h-10c-0.4,0-0.7-0.3-0.7-0.7v-6.4
	C170.9,189.3,171.2,189,171.6,189 M171.6,172.7h10c0.4,0,0.7,0.3,0.7,0.7v6.4c0,0.4-0.3,0.7-0.7,0.7h-10c-0.4,0-0.7-0.3-0.7-0.7
	v-6.4C170.9,173,171.2,172.7,171.6,172.7 M171.6,156.5h10c0.4,0,0.7,0.3,0.7,0.7v6.4c0,0.4-0.3,0.7-0.7,0.7h-10
	c-0.4,0-0.7-0.3-0.7-0.7v-6.4C170.9,156.8,171.2,156.5,171.6,156.5 M171.6,140.2h10c0.4,0,0.7,0.3,0.7,0.7v6.4
	c0,0.4-0.3,0.7-0.7,0.7h-10c-0.4,0-0.7-0.3-0.7-0.7v-6.4C170.9,140.5,171.2,140.2,171.6,140.2 M171.6,123.9h10
	c0.4,0,0.7,0.3,0.7,0.7v6.4c0,0.4-0.3,0.7-0.7,0.7h-10c-0.4,0-0.7-0.3-0.7-0.7v-6.4C170.9,124.2,171.2,123.9,171.6,123.9
	 M171.6,107.6h10c0.4,0,0.7,0.3,0.7,0.7v6.4c0,0.4-0.3,0.7-0.7,0.7h-10c-0.4,0-0.7-0.3-0.7-0.7v-6.4
	C170.9,108,171.2,107.6,171.6,107.6 M171.6,91.4h10c0.4,0,0.7,0.3,0.7,0.7v6.4c0,0.4-0.3,0.7-0.7,0.7h-10c-0.4,0-0.7-0.3-0.7-0.7
	v-6.4C170.9,91.7,171.2,91.4,171.6,91.4 M171.6,75.1h10c0.4,0,0.7,0.3,0.7,0.7v6.4c0,0.4-0.3,0.7-0.7,0.7h-10
	c-0.4,0-0.7-0.3-0.7-0.7v-6.4C170.9,75.4,171.2,75.1,171.6,75.1 M171.6,58.8h10c0.4,0,0.7,0.3,0.7,0.7v6.4c0,0.4-0.3,0.7-0.7,0.7
	h-10c-0.4,0-0.7-0.3-0.7-0.7v-6.4C170.9,59.1,171.2,58.8,171.6,58.8 M171.6,42.6h10c0.4,0,0.7,0.3,0.7,0.7v6.4
	c0,0.4-0.3,0.7-0.7,0.7h-10c-0.4,0-0.7-0.3-0.7-0.7v-6.4C170.9,42.9,171.2,42.6,171.6,42.6 M106.7,107.2h28.4l-4.2-19l-5.3,18.2
	l9.6,0l1.8,5.5l-13.1,0l-9.9,33.8l-5.8-0.4L128,76.7h-11.9L106.7,107.2z M94.1,107.2h10.6l9.8-31.8l0.2-0.7h0.7h13.4h0.8l0.2,0.8
	l7.4,31.7h23.7v2h-23.3l8.3,35.5h16.7v2.4h-23.9v-2.4h5.2l-8.3-35.5h-29.5l-10.9,35.5h22.9v2.4H79.5v-2.4h13.6l10.9-35.5h-10V107.2z
	 M78.9,67.1h83.4V65H78.9V67.1z M78.9,156.5h83.4v-2.1H78.9V156.5z M134,195.2c0.5,0,0.9,0,1.3-0.1c0.3-0.1,0.6-0.2,0.9-0.4
	c0.2-0.2,0.4-0.3,0.6-0.6c0.1-0.2,0.2-0.5,0.2-0.7c0-0.4-0.1-0.7-0.4-0.9c-0.3-0.2-0.7-0.4-1.3-0.6c-0.2,0-0.5-0.1-0.9-0.2
	c-0.3-0.1-0.6-0.1-0.9-0.2c-0.4-0.1-0.6-0.2-0.8-0.3c-0.2-0.1-0.3-0.3-0.3-0.6c0-0.3,0.2-0.5,0.5-0.7c0.3-0.2,0.7-0.3,1.3-0.3
	c0.5,0,0.9,0.1,1.3,0.2c0.4,0.1,0.8,0.3,1,0.4h0.1v-0.9c-0.4-0.1-0.7-0.2-1.2-0.3c-0.4-0.1-0.9-0.1-1.3-0.1c-0.8,0-1.5,0.2-2,0.5
	c-0.5,0.3-0.8,0.7-0.8,1.2c0,0.2,0,0.4,0.1,0.6c0.1,0.2,0.2,0.3,0.4,0.5c0.2,0.1,0.4,0.2,0.6,0.3c0.2,0.1,0.5,0.1,0.8,0.2
	c0.3,0.1,0.6,0.1,0.8,0.1c0.2,0,0.5,0.1,0.7,0.1c0.4,0.1,0.6,0.2,0.8,0.3c0.2,0.1,0.2,0.3,0.2,0.6c0,0.3-0.2,0.5-0.5,0.7
	c-0.3,0.2-0.8,0.3-1.4,0.3c-0.4,0-0.9-0.1-1.4-0.2c-0.5-0.1-0.9-0.3-1.3-0.6h-0.1v1c0.4,0.1,0.8,0.2,1.2,0.3
	C132.8,195.2,133.4,195.2,134,195.2 M125.2,190.9c0-0.2,0-0.3-0.1-0.5c-0.1-0.1-0.2-0.2-0.4-0.3c-0.1-0.1-0.3-0.1-0.5-0.2
	c-0.2,0-0.4,0-0.7,0h-1v2.2h0.9c0.3,0,0.6,0,0.8-0.1c0.2,0,0.4-0.1,0.6-0.2c0.1-0.1,0.3-0.2,0.3-0.4
	C125.1,191.3,125.2,191.1,125.2,190.9 M127.4,195.1h-1.3l-2.5-2.3h-1.2v2.3h-1v-5.9h2c0.4,0,0.8,0,1.1,0.1c0.3,0,0.6,0.1,0.9,0.3
	c0.3,0.1,0.5,0.3,0.6,0.5c0.2,0.2,0.2,0.5,0.2,0.8c0,0.4-0.1,0.8-0.4,1.1c-0.3,0.3-0.7,0.5-1.2,0.6L127.4,195.1z M112.8,195.2
	l2.8-5.9h1.4l2.8,5.9h-1.2l-0.8-1.6h-3.2l-0.8,1.6H112.8z M117.6,192.9l-1.3-2.8l-1.3,2.8H117.6z M111.9,191c0,0.3-0.1,0.5-0.2,0.7
	c-0.1,0.2-0.3,0.4-0.5,0.6c-0.3,0.2-0.6,0.4-1,0.5c-0.4,0.1-0.9,0.2-1.5,0.2h-0.9v2.2h-1.1v-5.9h2.1c0.5,0,0.9,0,1.3,0.1
	c0.3,0.1,0.7,0.2,0.9,0.3c0.3,0.2,0.6,0.3,0.7,0.6C111.8,190.4,111.9,190.7,111.9,191 M110.7,191c0-0.2-0.1-0.4-0.2-0.5
	c-0.1-0.1-0.3-0.3-0.5-0.4c-0.2-0.1-0.4-0.1-0.6-0.2c-0.2,0-0.5-0.1-0.9-0.1h-0.9v2.3h0.8c0.5,0,0.8,0,1.1-0.1
	c0.3-0.1,0.5-0.1,0.7-0.3c0.2-0.1,0.3-0.2,0.4-0.4C110.7,191.4,110.7,191.2,110.7,191 M146.9,186.4c0.3,0,0.5,0,0.7,0
	c0.2,0,0.4-0.1,0.6-0.1c0.2,0,0.4-0.1,0.6-0.2c0.2-0.1,0.4-0.1,0.5-0.2v-2.6h-2.6v0.7h1.7v1.5c-0.2,0.1-0.4,0.1-0.7,0.1
	c-0.3,0-0.5,0-0.8,0c-0.4,0-0.7-0.1-1-0.2c-0.3-0.1-0.5-0.3-0.8-0.5c-0.2-0.2-0.4-0.5-0.5-0.7c-0.1-0.3-0.2-0.6-0.2-1
	c0-0.7,0.2-1.3,0.6-1.7c0.4-0.4,1-0.6,1.7-0.6c0.3,0,0.6,0,0.8,0.1c0.3,0.1,0.5,0.1,0.7,0.2c0.2,0.1,0.4,0.2,0.5,0.2
	c0.1,0.1,0.3,0.2,0.4,0.2h0.1v-0.9c-0.1-0.1-0.3-0.1-0.5-0.2c-0.2-0.1-0.4-0.1-0.5-0.2c-0.2,0-0.4-0.1-0.6-0.1c-0.2,0-0.5,0-0.7,0
	c-0.5,0-1,0.1-1.4,0.2c-0.4,0.1-0.8,0.3-1.1,0.6c-0.3,0.3-0.5,0.6-0.7,1c-0.2,0.4-0.2,0.8-0.2,1.3c0,0.5,0.1,0.9,0.2,1.3
	c0.2,0.4,0.4,0.7,0.7,1c0.3,0.3,0.7,0.4,1.1,0.6C145.9,186.3,146.4,186.4,146.9,186.4 M127.5,186.3h-4.9v-5.9h1.1v5.2h3.8V186.3z
	 M133.7,186.3h-4.9v-5.9h1.1v5.2h3.8V186.3z M134.9,186.3l2.8-5.9h1.4l2.8,5.9h-1.2l-0.8-1.6h-3.2l-0.8,1.6H134.9z M139.7,184
	l-1.3-2.8l-1.3,2.8H139.7z M114.5,186.4c0.5,0,1,0,1.3-0.1c0.4-0.1,0.7-0.2,0.9-0.4c0.3-0.2,0.5-0.4,0.6-0.7c0.1-0.3,0.2-0.6,0.2-1
	v-3.7h-1.1v3.7c0,0.3,0,0.5-0.1,0.7c-0.1,0.2-0.1,0.3-0.3,0.5c-0.2,0.2-0.4,0.3-0.6,0.4c-0.3,0.1-0.6,0.1-0.9,0.1
	c-0.4,0-0.7,0-0.9-0.1c-0.3-0.1-0.5-0.2-0.6-0.4c-0.1-0.1-0.2-0.3-0.3-0.5c0-0.2-0.1-0.4-0.1-0.7v-3.7h-1.1v3.7
	c0,0.4,0.1,0.8,0.2,1.1c0.1,0.3,0.3,0.5,0.6,0.7c0.3,0.2,0.6,0.3,0.9,0.4C113.5,186.4,114,186.4,114.5,186.4 M110.1,187.7
	c-0.2,0-0.4,0.1-0.6,0.1c-0.2,0-0.4,0-0.6,0c-0.6,0-1.1-0.1-1.4-0.4c-0.4-0.2-0.6-0.6-0.6-1.1h-0.1h-0.1c-0.5,0-1-0.1-1.4-0.2
	c-0.4-0.1-0.8-0.3-1.1-0.6c-0.3-0.3-0.5-0.6-0.7-1c-0.2-0.4-0.2-0.8-0.2-1.3c0-0.5,0.1-0.9,0.2-1.3c0.2-0.4,0.4-0.7,0.7-1
	c0.3-0.3,0.7-0.5,1.1-0.6c0.4-0.1,0.9-0.2,1.4-0.2c0.5,0,1,0.1,1.4,0.2c0.4,0.1,0.8,0.3,1.1,0.6c0.3,0.3,0.5,0.6,0.7,1
	c0.2,0.4,0.2,0.8,0.2,1.3c0,0.8-0.2,1.4-0.6,1.9c-0.4,0.5-0.9,0.8-1.6,1c0,0.1,0.1,0.3,0.1,0.4c0.1,0.1,0.1,0.2,0.2,0.3
	c0.1,0.1,0.2,0.1,0.3,0.2c0.1,0,0.3,0.1,0.5,0.1c0.1,0,0.3,0,0.5-0.1c0.2,0,0.3-0.1,0.4-0.1h0.1V187.7z M109,183.3
	c0-0.4-0.1-0.7-0.2-1c-0.1-0.3-0.3-0.5-0.5-0.7c-0.2-0.2-0.5-0.4-0.7-0.5c-0.3-0.1-0.6-0.2-1-0.2c-0.4,0-0.7,0.1-1,0.1
	c-0.3,0.1-0.5,0.3-0.7,0.5c-0.2,0.2-0.4,0.4-0.5,0.8c-0.1,0.3-0.2,0.6-0.2,1c0,0.8,0.2,1.4,0.6,1.8c0.4,0.4,1,0.6,1.7,0.6
	s1.3-0.2,1.7-0.6C108.8,184.7,109,184.1,109,183.3 M95.2,186.3l2.8-5.9h1.4l2.8,5.9h-1.2l-0.8-1.6h-3.2l-0.8,1.6H95.2z M100,184
	l-1.3-2.8l-1.3,2.8H100z M93.8,180.4h-1.5l-1.9,3.3l-2-3.3h-1.4v5.9h1v-5.1l2,3.4h0.6l2-3.4v5.1h1V180.4z M164.8,176.8H161v-5.2
	h-1.1v5.9h4.9V176.8z M149.8,177.5h-1.3l-3.7-5.1v5.1h-1v-5.9h1.6l3.4,4.6v-4.6h1V177.5z M151,177.5l2.8-5.9h1.4l2.8,5.9h-1.2
	l-0.8-1.6h-3.2l-0.8,1.6H151z M155.8,175.2l-1.3-2.8l-1.3,2.8H155.8z M141.1,174.5c0-0.4-0.1-0.7-0.2-1c-0.1-0.3-0.2-0.5-0.4-0.7
	c-0.2-0.2-0.4-0.4-0.7-0.5c-0.3-0.1-0.6-0.2-0.9-0.2c-0.4,0-0.7,0-0.9,0.1c-0.3,0.1-0.5,0.3-0.7,0.5c-0.2,0.2-0.3,0.5-0.4,0.8
	c-0.1,0.3-0.2,0.6-0.2,1c0,0.8,0.2,1.4,0.6,1.8c0.4,0.4,0.9,0.6,1.6,0.6c0.7,0,1.2-0.2,1.6-0.6C141,175.9,141.1,175.3,141.1,174.5
	 M141.3,172.3c0.3,0.3,0.5,0.6,0.6,1c0.2,0.4,0.2,0.8,0.2,1.3c0,0.5-0.1,0.9-0.2,1.3c-0.1,0.4-0.4,0.7-0.6,1c-0.3,0.3-0.6,0.5-1,0.6
	c-0.4,0.1-0.8,0.2-1.3,0.2c-0.5,0-0.9-0.1-1.3-0.2c-0.4-0.1-0.7-0.3-1-0.6c-0.3-0.3-0.5-0.6-0.6-1c-0.1-0.4-0.2-0.8-0.2-1.3
	c0-0.5,0.1-0.9,0.2-1.3c0.2-0.4,0.4-0.7,0.6-1c0.3-0.3,0.6-0.5,1-0.6c0.4-0.1,0.8-0.2,1.3-0.2c0.5,0,0.9,0.1,1.3,0.2
	C140.7,171.8,141,172,141.3,172.3 M134.1,176.9v-4.7v-0.6l-1.1,0l0,0.6v4.7v0.6h1.1V176.9z M128.7,177.5v-5.2h2.8v-0.7h-6.8v0.7h2.8
	v5.2H128.7z M117.3,177.5l2.8-5.9h1.4l2.8,5.9h-1.2l-0.8-1.6h-3.2l-0.8,1.6H117.3z M122.1,175.2l-1.3-2.8l-1.3,2.8H122.1z
	 M116,171.6h-1v4.6l-3.4-4.6H110v5.9h1v-5.1l3.7,5.1h1.3V171.6z M92.9,177.5v-5.2h2.8v-0.7H89v0.7h2.8v5.2H92.9z M87.8,171.6h-1v4.6
	l-3.4-4.6h-1.6v5.9h1v-5.1l3.7,5.1h1.3V171.6z M135.8,168.7V168h-3.4v-2.2h3.2v-0.7h-3.2v-1.6h3.4v-0.7h-4.3v5.9H135.8z M126.5,168
	h-3.8v-5.2h-1.1v5.9h4.9V168z M111,168.7v-5.2h2.8v-0.7H107v0.7h2.8v5.2H111z M99.4,168.7l2.8-5.9h1.4l2.8,5.9h-1.2l-0.8-1.6h-3.2
	l-0.8,1.6H99.4z M104.2,166.4l-1.3-2.8l-1.3,2.8H104.2z M152.4,58.9l3.7-14.1h4.6c1.6,0,2.8,0.1,3.4,0.4c1.3,0.6,1.6,1.8,1.2,3.6
	c-0.4,1.5-1.3,2.6-2.6,3.5c-1.4,0.8-3.1,1.3-5.1,1.3H156l-1.4,5.3H152.4z M156.4,51.9h1.3c2.9,0,4.7-1,5.2-3.1
	c0.2-0.9,0.1-1.5-0.3-1.9c-0.5-0.4-1.3-0.6-2.6-0.6h-2.1L156.4,51.9z M141.1,53.3c-0.5,2-0.5,3.5,0.1,4.4c0.6,1,1.8,1.4,3.5,1.4
	c2,0,3.7-0.8,5-2.4c0.6-0.8,1.2-2,1.6-3.8l2.2-8.2h-2l-2.3,8.5c-0.4,1.5-0.9,2.6-1.6,3.3c-0.7,0.7-1.4,1-2.5,1c-1.1,0-1.7-0.3-2-1
	c-0.3-0.7-0.2-1.7,0.2-3.2l2.3-8.5h-2.2L141.1,53.3z M139.3,53.7l0.4-1.9h-8.9l-0.4,1.9H139.3z M128.1,58.9l0.4-1.6h-7.8l1.3-4.9
	h6.2l0.4-1.6h-6.2l1.1-4.3h7.3l0.4-1.6h-9.5l-3.7,14.1H128.1z M107.8,58.9l1.9-7.2l4.7,7.2h2.6l-4.8-7.4l7.4-6.6h-2.2l-7.7,6.9
	l1.8-6.9h-2.2l-3.7,14.1H107.8z M90.7,58.9l9.1-14.1h2.7l1.8,14.1H102l-0.4-3.5h-6.4l-2.3,3.5H90.7z M96.3,53.7h5.1l-0.8-6.7
	L96.3,53.7z M78.3,58.9L81.7,47h0l0.9,8.8h2l6.1-9.1h0l-3.5,12.1h1.9l4.1-14.1h-3l-5.8,8.7h0l-0.9-8.7h-3.2l-4,14.1H78.3z
	 M119.4,168.7V168H116v-2.2h3.2v-0.7H116v-1.6h3.4v-0.7h-4.3v5.9H119.4z M101.2,177.4v-0.7h-3.4v-2.2h3.2v-0.7h-3.2v-1.6h3.4v-0.7
	h-4.3v5.9H101.2z M155.5,186.5v-0.7h-3.4v-2.2h3.2v-0.7h-3.2v-1.6h3.4v-0.7h-4.3v5.9H155.5z M141.7,164.5c0-0.2,0-0.3-0.1-0.5
	c-0.1-0.1-0.2-0.2-0.4-0.3c-0.1-0.1-0.3-0.1-0.5-0.2c-0.2,0-0.4,0-0.7,0h-1v2.2h0.9c0.3,0,0.6,0,0.8-0.1c0.2,0,0.4-0.1,0.6-0.2
	c0.1-0.1,0.3-0.2,0.3-0.4C141.6,164.9,141.7,164.7,141.7,164.5 M143.9,168.7h-1.3l-2.5-2.3h-1.2v2.3h-1v-5.9h2c0.4,0,0.8,0,1.1,0.1
	c0.3,0,0.6,0.1,0.9,0.3c0.3,0.1,0.5,0.3,0.6,0.5c0.2,0.2,0.2,0.5,0.2,0.8c0,0.4-0.1,0.8-0.4,1.1c-0.3,0.3-0.7,0.5-1.2,0.6
	L143.9,168.7z M129.3,168.3v-4.7V163l-1.1,0l0,0.6v4.7v0.6h1.1V168.3z M120.4,185.8v-4.7v-0.6l-1.1,0l0,0.6v4.7v0.6h1.1V185.8z
	 M129.4,194.9v-4.7v-0.6l-1.1,0l0,0.6v4.7v0.6h1.1V194.9z M107,173.2c0-0.2,0-0.3-0.1-0.5c-0.1-0.1-0.2-0.2-0.4-0.3
	c-0.1-0.1-0.3-0.1-0.5-0.2c-0.2,0-0.4,0-0.7,0h-1v2.2h0.9c0.3,0,0.6,0,0.8-0.1c0.2,0,0.4-0.1,0.6-0.2c0.1-0.1,0.3-0.2,0.3-0.4
	C106.9,173.6,107,173.4,107,173.2 M109.2,177.5h-1.3l-2.5-2.3h-1.2v2.3h-1v-5.9h2c0.4,0,0.8,0,1.1,0.1c0.3,0,0.6,0.1,0.9,0.3
	c0.3,0.1,0.5,0.3,0.6,0.5c0.2,0.2,0.2,0.5,0.2,0.8c0,0.4-0.1,0.8-0.4,1.1c-0.3,0.3-0.7,0.5-1.2,0.6L109.2,177.5z M79.8,176.8v-4.7
	v-0.6l-1.1,0l0,0.6v4.7v0.6h1.1V176.8z M54.8,38.9h17.6v162.5H54.8V38.9z M167.7,38.9h17.6v162.5h-17.6V38.9z"/>
<path id="_x34_" class="st2" d="M232.5,227.9l-14.6-30.6l-15.4,7.3l-16.6-4.1l-8.2,32.9c-0.4,1.7,1.2,3.3,2.9,2.7l7.8-2.8l5.6,6.1
	c1.2,1.3,3.4,0.8,3.8-1l5.7-23l10.2,21.4c0.8,1.6,3,1.7,3.9,0.2l4.3-7.1l8.2,1.2C232,231.3,233.3,229.5,232.5,227.9z"/>
<circle id="_x33_" class="st3" cx="200.8" cy="187.4" r="24.2"/>
<circle id="_x32_" class="st4" cx="200.8" cy="187.4" r="17.3"/>
</svg>
