<?xml version="1.0" encoding="utf-8"?>
<svg version="1.1" id="_x30_" xmlns="http://www.w3.org/2000/svg" xmlns:xlink="http://www.w3.org/1999/xlink" x="0px" y="0px"
	 viewBox="0 0 972.2 201.4" style="enable-background:new 0 0 972.2 201.4;" xml:space="preserve">
<style type="text/css">
	.st0{fill:#24C9AC;}
	.st1{fill:#242428;}
</style>
<path id="_x32_" class="st0" d="M123.6,194.2c-8,0-11.8-4.8-11.8-14.5c0-9.9,3.9-14.7,11.8-14.7c7.9,0,9.3,6.5,9.6,7.8
	c0.1,0.7,0,1-0.1,1.1c-0.1,0.2-0.5,0.3-0.8,0.3l-0.1,0c-1.2,0-1.4-0.5-1.6-1c-1-4.3-3.3-6.4-7-6.4c-5.7,0-8.8,4.5-8.8,12.7
	c0,8.2,3.1,12.7,8.8,12.7c3.7,0,6-2.1,7-6.4c0.1-0.5,0.4-1,1.4-1c0.1,0,0.2,0,0.3,0c0.4,0,0.7,0.1,0.8,0.3c0.1,0.1,0.2,0.4,0.1,1.2
	C133,187.8,131.5,194.2,123.6,194.2z M154.2,193.6c4.5,0,7.8-3.1,7.8-7.4c0-3.6-1.6-5.9-4.8-6.8l-2.4-0.7l2.3-0.9
	c2.6-1,3.8-2.8,3.8-5.9c0-5.2-4.3-6.3-8-6.3h-8.6c-3.6,0-3.6,1.8-3.6,4.5v19.1c0,2.7,0,4.5,3.6,4.5H154.2z M143.6,179.7h9.3
	c3.8,0,5.9,2.2,5.9,6.1c0,3.9-2,5.9-5.9,5.9h-6.9c-2.1,0-2.3-1.3-2.3-2.3V179.7z M152.9,167.5c3.3,0,5.1,1.8,5.1,5
	c0,3.3-2,5.4-5.1,5.4h-9.3v-8.1c0-1.1,0.3-2.3,2.3-2.3H152.9z M185,188.8l1.6,0.4c0,1.8,0.2,2.8,0.3,3.7c0.1,0.7,0.6,1,1.4,1
	c0.1,0,0.2,0,0.3,0c0.8-0.1,1.1-0.3,0.9-1.3c-0.2-1.1-0.2-2.3-0.2-3.9V176c0-8-2.9-11.3-10.1-11.3c-4.2,0-7.2,0.8-9.2,2.5
	c-0.4,0.4-0.7,0.8-0.7,1c0,0.3,0.2,0.5,0.4,0.6c0.2,0.2,0.6,0.4,1,0.4c0.3,0,0.6-0.1,0.9-0.4c2.1-1.6,4.3-2.4,6.9-2.4
	c1.9,0,6.4,0.4,7.6,4c0.4,1.2,0.6,2.9,0.6,5.4v0.9l-2.2-0.1c-1.1,0-1.9-0.1-2.5-0.1c-9.8,0-14.8,3.2-14.8,9.5c0,5,3.3,8.2,8.5,8.2
	C180.1,194.4,183.2,192.6,185,188.8z M185.8,178.6l0.7,0l0.1,0.7c0.3,4.2-0.6,7.3-2.7,9.8c-1.9,2.2-4.4,3.3-7.3,3.3
	c-3.9,0-6.3-2.4-6.3-6.1c0-5.1,4.1-8,11.4-8C182.6,178.5,184,178.5,185.8,178.6z M219.9,199.4v-5.3c0-1.6-0.7-2.3-2.4-2.3l-0.8,0
	V170c0-1.2,0-2.4-0.4-3.2c-0.3-0.5-0.9-1.2-3.2-1.2h-9.4c-2.7,0-3.3,1.7-3.5,4.6c-0.1,0.8-0.1,2.3-0.2,4.1
	c-0.1,3.2-0.3,7.6-0.8,10.8c-0.5,3.4-1.3,5.2-2.7,5.9c-1.6,0.9-2.1,1.3-2.1,3.2v5.3c0,0.9,0.2,1.1,1.2,1.1c0.8,0,1.1-0.2,1.1-1.1v-4
	c0-0.5,0.2-1.7,1.6-1.7H216c1.5,0,1.6,1.2,1.6,1.7v4c0,0.9,0.2,1.1,1.1,1.1C219.7,200.5,219.9,200.2,219.9,199.4z M211.6,167.5
	c2.1,0,2.3,1.3,2.3,2.3v21.9h-15.2l1.1-1.4c0.6-0.8,1.4-2.7,1.8-5.5c0.6-3.4,0.8-8,0.9-11.4c0.1-1.5,0.1-2.7,0.2-3.6
	c0.1-0.8,0.3-2.4,2.5-2.4H211.6z M247.2,187c0.1-0.4,0-0.6-0.1-0.8c-0.2-0.2-0.5-0.4-0.8-0.4c-0.1,0-0.1,0-0.2,0
	c-0.7,0-1.3,0.4-1.4,0.9c-1.1,3.5-4.1,5.7-7.8,5.7c-5.8,0-9.2-4.5-9.3-12.3l0-0.9h16.1c3.9,0,3.9-1.6,3.9-3.1c0.1-3.4-1-6.2-2.9-8.2
	c-2-2-4.7-3-8-3c-11.4,0-12.3,11.4-12.3,14.9c0,6.8,3.2,14.7,12.4,14.7C242,194.4,246.1,191.5,247.2,187z M244.9,175.1
	c0.1,1-0.3,2.1-2.1,2.3h-15.2l0-0.9c0.1-4.8,3.6-10,9.1-10C241.5,166.6,244.7,169.9,244.9,175.1z M277.7,179.6
	c0-10.1-3.5-14.6-11.3-14.6c-3,0-5.9,1.6-7.9,4.4l-0.4,0.6l-1.3-0.7l0.1-0.6c1.2-5.8,4.6-9.7,10-11.6l1.4-0.5
	c2.6-0.9,5.5-1.9,6.5-2.6c1.4-1,1.3-1.5,1-2.2c-0.3-0.6-0.7-0.9-1.1-0.9c-0.2,0-0.5,0.1-0.7,0.3c-1.6,1.4-3.7,2.2-5.7,2.9
	c-0.9,0.3-1.7,0.6-2.4,0.9c-8.3,3.6-12.1,11.3-11.8,24.2c0.2,6.9,2.3,15.1,12,15.1C273.9,194.2,277.7,189.4,277.7,179.6z
	 M274.7,179.6c0,8.2-3.1,12.7-8.8,12.7c-5.7,0-8.8-4.5-8.8-12.7c0-8.2,3.1-12.7,8.8-12.7C271.5,166.9,274.7,171.4,274.7,179.6z
	 M304.6,193v-26.9c0-0.6-0.1-1.1-1.4-1.1c-1.4,0-1.4,0.7-1.4,1.1v11.8h-14.4v-11.8c0-0.6-0.1-1.1-1.4-1.1c-1.4,0-1.4,0.7-1.4,1.1
	V193c0,0.6,0.1,1.2,1.4,1.2c1.2,0,1.4-0.4,1.4-1.2v-13.3h14.4V193c0,0.6,0.1,1.2,1.4,1.2C304.3,194.2,304.6,193.8,304.6,193z
	 M341.7,193.1v-26.9c0-0.7-0.2-1.2-1.4-1.2c-1.2,0-1.3,0.6-1.3,1.2v26.9c0,0.4,0,1.1,1.3,1.1C341.5,194.2,341.7,193.7,341.7,193.1z
	 M325.6,193.6c4.9,0,8.5-3.5,8.5-8.4c0-5.1-3.2-8.2-8.3-8.2h-9.2v-10.8c0-0.8-0.2-1.2-1.3-1.2c-1.3,0-1.4,0.6-1.4,1.2v23
	c0,2.9,0.2,4.5,3.5,4.5H325.6z M316.4,179h8.5c3.8,0,5.9,2.3,5.9,6.4c0,4-2.2,6.3-5.9,6.3h-6c-0.7,0-2.5,0-2.5-2.3V179z M371.7,193
	v-26.9c0-0.6-0.1-1.1-1.4-1.1c-0.8,0-1.1,0.2-1.2,0.4c-11.9,19-13.1,21-13.9,22.7l-1.6-0.4v-21.7c0-0.6-0.1-1.1-1.4-1.1
	c-1.4,0-1.4,0.7-1.4,1.1V193c0,0.6,0.1,1.2,1.4,1.2c0.5,0,1.1-0.1,1.3-0.5l11.5-18.3c1-1.5,1.5-2.6,1.9-3.4c0.1-0.3,0.3-0.5,0.4-0.7
	l1.6,0.4V193c0,0.6,0.1,1.2,1.4,1.2C371.5,194.2,371.7,193.8,371.7,193z M367.9,155.8c0.3-0.7,0.1-0.8-0.1-0.9
	c-0.1-0.1-0.2-0.1-0.4-0.1c-0.3,0-0.6,0.2-0.9,0.4c-1.5,1.8-2.9,2.5-5.2,2.5c-2.3,0-3.7-0.7-5.3-2.5c-0.3-0.3-0.6-0.4-0.8-0.4
	c-0.1,0-0.3,0-0.3,0c-0.2,0.1-0.4,0.2-0.1,0.9c0.6,1.4,2.9,3.5,6.6,3.5C364.2,159.3,366.8,157.9,367.9,155.8z M412.1,193.6
	c4.5,0,7.8-3.1,7.8-7.4c0-3.6-1.6-5.9-4.8-6.8l-2.4-0.7l2.3-0.9c2.6-1,3.8-2.8,3.8-5.9c0-5.2-4.3-6.3-8-6.3h-8.6
	c-3.6,0-3.6,1.8-3.6,4.5v19.1c0,2.7,0,4.5,3.6,4.5H412.1z M401.5,179.7h9.3c3.8,0,5.9,2.2,5.9,6.1c0,3.9-2,5.9-5.9,5.9h-6.9
	c-2.1,0-2.3-1.3-2.3-2.3V179.7z M410.8,167.5c3.3,0,5.1,1.8,5.1,5c0,3.3-2,5.4-5.1,5.4h-9.3v-8.1c0-1.1,0.3-2.3,2.3-2.3H410.8z
	 M448.2,193v-26.9c0-0.6-0.1-1.1-1.4-1.1c-0.8,0-1.1,0.2-1.2,0.4l-11.2,17.9c-0.9,1.5-1.9,3.2-2.6,4.8l-1.6-0.3v-21.7
	c0-0.4,0-1.1-1.4-1.1c-1.4,0-1.4,0.7-1.4,1.1V193c0,0.6,0.1,1.2,1.4,1.2c0.5,0,1.1-0.1,1.3-0.5l11.4-18.1c0.2-0.3,0.4-0.6,0.5-0.9
	c0.7-1.1,1.4-2.3,1.9-3.5l1.6,0.3V193c0,0.6,0.1,1.2,1.4,1.2C448,194.2,448.2,193.8,448.2,193z M475.3,186c0-3.3-1.8-5.4-5.5-6.5
	l-2.3-0.6l2.2-1c3.2-1.4,4.8-3.4,4.8-6.1c0-5.2-4.7-7.1-9.1-7.1c-3.4,0-9.2,1-9.7,7.6c0,0.2,0,0.3,0.1,0.4c0.2,0.3,0.8,0.4,1.3,0.4
	c0.9-0.1,1-0.5,1-0.7c0.4-4,2.9-6,7.3-6c3.7,0,6.2,2.3,6.2,5.6c0,3.7-2.7,5.8-7.5,5.8c-1.1,0-1.2,0.2-1.2,0.9c0,0.9,0.3,1,0.8,1
	l0.1,0c0.2,0,0.5,0,0.7,0c4.8,0,7.7,2.3,7.7,6.1c0,4.1-2.8,6.8-7.1,6.8c-4.2,0-7-2.5-7.4-6.4c-0.1-0.8-0.3-1-1.3-1
	c-0.5,0-1,0.1-1.2,0.4c-0.1,0.1-0.2,0.2-0.2,0.7c0.7,5.1,4.3,8,10.3,8C471.6,194.4,475.3,191.2,475.3,186z M498.3,188.8l1.6,0.4
	c0,1.8,0.2,2.8,0.3,3.7c0.1,0.7,0.6,1,1.4,1c0.1,0,0.2,0,0.3,0c0.8-0.1,1.1-0.3,0.9-1.3c-0.2-1.1-0.2-2.3-0.2-3.9V176
	c0-8-2.9-11.3-10.1-11.3c-4.2,0-7.2,0.8-9.2,2.5c-0.4,0.4-0.7,0.8-0.7,1c0,0.3,0.2,0.5,0.4,0.6c0.2,0.2,0.6,0.4,1,0.4
	c0.3,0,0.6-0.1,0.9-0.4c2.1-1.6,4.3-2.4,6.9-2.4c1.9,0,6.4,0.4,7.6,4c0.4,1.2,0.6,2.9,0.6,5.4v0.9l-2.2-0.1c-1.1,0-1.9-0.1-2.5-0.1
	c-9.8,0-14.8,3.2-14.8,9.5c0,5,3.3,8.2,8.5,8.2C493.5,194.4,496.5,192.6,498.3,188.8z M499.2,178.6l0.7,0l0.1,0.7
	c0.3,4.2-0.6,7.3-2.7,9.8c-1.9,2.2-4.4,3.3-7.3,3.3c-3.9,0-6.3-2.4-6.3-6.1c0-5.1,4.1-8,11.4-8C495.9,178.5,497.3,178.5,499.2,178.6
	z M541.8,194.2c0.4-0.1,0.6-0.2,0.6-0.3c0,0,0-0.2-0.1-0.5c-1.1-2.7-1.6-4-2.6-7.7c-1.3-4.3-3.3-6.6-6.4-7.2l-2.8-0.5l2.7-1.1
	c2.6-1.1,4-2.9,5.2-5.4c0.4-0.7,0.7-1.5,1-2.2c0.5-1.1,1-2.3,1.7-3.4c0.3-0.5,0.3-0.7,0.2-0.8c0-0.1-0.3-0.3-1-0.4
	c-0.1,0-0.2,0-0.3,0c-0.9,0-1.3,0.4-1.6,0.7c-0.9,1.2-1.5,2.5-2.1,3.8c-0.2,0.5-0.4,1-0.7,1.5c-1.2,2.5-3.3,5.8-7.6,6.5l-1,0.2
	v-11.4c0-0.7-0.2-1.1-1.3-1.1c-1.2,0-1.3,0.6-1.3,1.1v11.4l-1-0.2c-4.3-0.7-6.3-3.8-7.6-6.5c-0.2-0.5-0.4-0.9-0.7-1.4
	c-0.6-1.3-1.2-2.7-2.1-3.9c-0.2-0.3-0.7-0.7-1.6-0.7c-0.1,0-0.2,0-0.4,0c-0.7,0.1-0.9,0.3-0.9,0.4c0,0.1,0,0.3,0.3,0.8
	c0.7,1.3,1.4,2.6,2,3.9c0.3,0.6,0.5,1.1,0.8,1.7c1.2,2.5,2.5,4.3,5.2,5.4l2.7,1.1l-2.8,0.5c-3.1,0.6-5.1,2.9-6.4,7.2
	c-1,3.6-1.4,4.9-2.6,7.7c-0.1,0.3-0.1,0.4-0.1,0.5c0,0.1,0.2,0.2,0.6,0.3c0.2,0,0.4,0,0.6,0c0.7,0,1.1-0.2,1.2-0.3
	c1-1.2,1.6-3.5,2.1-5.5c0.1-0.4,0.2-0.8,0.3-1.1c1.3-4.8,2.7-8.2,8.9-8.2c0.2,0,0.5,0,0.7,0l0.8,0v14c0,0.7,0.2,1.2,1.3,1.2
	c1.1,0,1.3-0.4,1.3-1.2v-14l0.8,0c0.3,0,0.5,0,0.7,0c6.2,0,7.6,3.3,8.9,8.2c0.1,0.5,0.3,1,0.4,1.5c0.5,2,1.1,4.1,2,5.2
	c0.1,0.1,0.6,0.3,1.3,0.3C541.5,194.3,541.7,194.3,541.8,194.2z M570.2,193v-26.9c0-0.6-0.1-1.1-1.4-1.1c-0.8,0-1.1,0.2-1.2,0.4
	l-11.2,17.9c-0.9,1.5-1.9,3.2-2.6,4.8l-1.6-0.3v-21.7c0-0.4,0-1.1-1.4-1.1c-1.4,0-1.4,0.7-1.4,1.1V193c0,0.6,0.1,1.2,1.4,1.2
	c0.5,0,1.1-0.1,1.3-0.5l11.4-18.1c0.2-0.3,0.4-0.6,0.5-0.9c0.7-1.1,1.4-2.3,1.9-3.5l1.6,0.3V193c0,0.6,0.1,1.2,1.4,1.2
	C570,194.2,570.2,193.8,570.2,193z M599.1,186.5c0.1-0.8,0-1.1-0.1-1.2c-0.1-0.1-0.4-0.2-0.8-0.3c-0.1,0-0.2,0-0.3,0
	c-1,0-1.3,0.5-1.4,1c-1,4.3-3.3,6.4-7,6.4c-5.7,0-8.8-4.5-8.8-12.7c0-8.2,3.1-12.7,8.8-12.7c3.7,0,6,2.1,7,6.4c0.1,0.5,0.4,1,1.6,1
	l0.1,0c0.3,0,0.7-0.1,0.8-0.3c0.1-0.1,0.2-0.4,0.1-1.1c-0.2-1.3-1.7-7.8-9.6-7.8c-8,0-11.8,4.8-11.8,14.7c0,9.8,3.9,14.5,11.8,14.5
	C597.4,194.2,598.8,187.8,599.1,186.5z M613.5,193v-25.5h7.4c0.3,0,0.7,0,0.7-1c0-0.9-0.4-0.9-0.7-0.9h-17.5c-0.3,0-0.8,0-0.8,0.9
	c0,1,0.4,1,0.8,1h7.3V193c0,0.6,0.1,1.2,1.4,1.2C613.2,194.2,613.5,193.8,613.5,193z M638.5,180.3c0.3,0,0.9,0,0.9-1.2
	c0-1.2-0.6-1.2-0.9-1.2h-10.9c-0.4,0-0.9,0-0.9,1.2c0,1.1,0.4,1.2,0.9,1.2H638.5z M667.2,186.5c0.1-0.8,0-1.1-0.1-1.2
	c-0.1-0.1-0.4-0.2-0.8-0.3c-0.1,0-0.2,0-0.3,0c-1,0-1.3,0.5-1.4,1c-1,4.3-3.3,6.4-7,6.4c-5.7,0-8.8-4.5-8.8-12.7
	c0-8.2,3.1-12.7,8.8-12.7c3.7,0,6,2.1,7,6.4c0.1,0.5,0.4,1,1.6,1l0.1,0c0.3,0,0.7-0.1,0.8-0.3c0.1-0.1,0.2-0.4,0.1-1.1
	c-0.2-1.3-1.7-7.8-9.6-7.8c-8,0-11.8,4.8-11.8,14.7c0,9.8,3.9,14.5,11.8,14.5C665.5,194.2,666.9,187.8,667.2,186.5z M681.6,193
	v-25.5h7.4c0.3,0,0.7,0,0.7-1c0-0.9-0.4-0.9-0.7-0.9h-17.5c-0.3,0-0.8,0-0.8,0.9c0,1,0.4,1,0.8,1h7.3V193c0,0.6,0.1,1.2,1.4,1.2
	C681.3,194.2,681.6,193.8,681.6,193z M716.8,193v-26.9c0-0.6-0.1-1.1-1.4-1.1c-0.8,0-1.1,0.2-1.2,0.4L703,183.3
	c-0.9,1.5-1.9,3.2-2.6,4.8l-1.6-0.3v-21.7c0-0.4,0-1.1-1.4-1.1c-1.4,0-1.4,0.7-1.4,1.1V193c0,0.6,0.1,1.2,1.4,1.2
	c0.5,0,1.1-0.1,1.3-0.5l11.4-18.1c0.2-0.3,0.4-0.6,0.5-0.9c0.7-1.1,1.4-2.3,1.9-3.5l1.6,0.3V193c0,0.6,0.1,1.2,1.4,1.2
	C716.6,194.2,716.8,193.8,716.8,193z M744.3,193.1V170c0-1.2,0-2.4-0.4-3.2c-0.3-0.5-0.9-1.2-3.1-1.2h-8.6c-3.3,0-3.7,2.1-3.9,5.2
	l0,0.1c-0.1,1-0.2,2.5-0.3,4.2c-0.2,3.3-0.4,7.5-0.9,11.2l-0.1,0.5c-0.3,2.5-0.6,5.1-4.1,5.1c-0.4,0-0.6,0.4-0.6,1.2
	c0,0.2,0,0.4,0.2,0.6c0.2,0.2,0.6,0.3,1.1,0.4c0.2,0,0.4,0,0.5,0c3.2,0,4.9-2.3,5.5-7.5c0.5-4.1,0.8-8.9,1.1-12.8
	c0.1-1.4,0.2-2.7,0.3-3.7c0.1-1.6,1.1-2.5,2.7-2.5h5.5c2.3,0,2.3,1.7,2.3,2.3v23.3c0,0.6,0.1,1.1,1.4,1.1S744.3,193.7,744.3,193.1z
	 M774.4,193v-26.9c0-0.6-0.1-1.1-1.4-1.1c-0.8,0-1.1,0.2-1.2,0.4l-11.2,17.9c-0.9,1.5-1.9,3.2-2.6,4.8l-1.6-0.3v-21.7
	c0-0.4,0-1.1-1.4-1.1c-1.4,0-1.4,0.7-1.4,1.1V193c0,0.6,0.1,1.2,1.4,1.2c0.5,0,1.1-0.1,1.3-0.5l11.4-18.1c0.2-0.3,0.4-0.6,0.5-0.9
	c0.7-1.1,1.4-2.3,1.9-3.5l1.6,0.3V193c0,0.6,0.1,1.2,1.4,1.2C774.1,194.2,774.4,193.8,774.4,193z M803.2,186.5
	c0.1-0.8,0-1.1-0.1-1.2c-0.1-0.1-0.4-0.2-0.8-0.3c-0.1,0-0.2,0-0.3,0c-1,0-1.3,0.5-1.4,1c-1,4.3-3.3,6.4-7,6.4
	c-5.7,0-8.8-4.5-8.8-12.7c0-8.2,3.1-12.7,8.8-12.7c3.7,0,6,2.1,7,6.4c0.1,0.5,0.4,1,1.6,1l0.1,0c0.3,0,0.7-0.1,0.8-0.3
	c0.1-0.1,0.2-0.4,0.1-1.1c-0.2-1.3-1.7-7.8-9.6-7.8c-8,0-11.8,4.8-11.8,14.7c0,9.8,3.9,14.5,11.8,14.5
	C801.5,194.2,803,187.8,803.2,186.5z M817.6,193v-25.5h7.4c0.3,0,0.7,0,0.7-1c0-0.9-0.4-0.9-0.7-0.9h-17.5c-0.3,0-0.8,0-0.8,0.9
	c0,1,0.4,1,0.8,1h7.3V193c0,0.6,0.1,1.2,1.4,1.2C817.4,194.2,817.6,193.8,817.6,193z M496,141.4V70.1c0-2.1-1.3-3.8-3.1-4.5v-7.9
	c0-2.1-1.3-3.8-3.1-4.5V17.4c0-10.8-8.7-17.2-17.1-17.2c-5.2,0-8,2.8-8,8v45c-1.8,0.7-3.1,2.5-3.1,4.5v7.9c-1.8,0.7-3.1,2.5-3.1,4.5
	v71.3c0,2.7,2.2,4.8,4.8,4.8h27.9C493.9,146.2,496,144,496,141.4z M491.2,68.8c0.7,0,1.4,0.6,1.4,1.4v71.3c0,0.7-0.6,1.4-1.4,1.4
	h-27.9c-0.7,0-1.4-0.6-1.4-1.4V70.1c0-0.7,0.6-1.4,1.4-1.4H491.2z M465.1,57.7c0-0.7,0.6-1.4,1.4-1.4h21.7c0.7,0,1.4,0.6,1.4,1.4
	v7.6h-24.4V57.7z M468.2,8.3c0-3.3,1.2-4.5,4.5-4.5c6.7,0,13.7,5.1,13.7,13.7v35.4h-18.2V8.3z"/>
<path id="_x31_" class="st1" d="M554.6,123.2c-23.1,0-28-19.2-28-35.3c0-16.1,4.8-35.4,28-35.4c13.4,0,22.6,8.5,23.6,21.6
	c0.1,0.8,0,1.3-0.4,1.8c-0.6,0.7-1.7,1-2.5,1c-3.1,0-3.3-1.8-3.4-2.4c-1.6-10.7-8-17.1-17.2-17.1C534,57.5,534,80.4,534,88
	c0,30.4,15.5,30.4,20.6,30.4c9.2,0,15.7-6.4,17.2-17.1c0.3-1.9,1.9-2.3,3.1-2.3c0.1,0,0.2,0,0.3,0c1.1,0.1,2,0.4,2.5,0.9
	c0.4,0.4,0.5,1,0.4,1.8C577.1,114.6,567.6,123.2,554.6,123.2z M605.4,127.7l19.5-54.4c0.3-0.8,0-1.1,0-1.2c-0.4-0.6-1.7-1-3.3-1
	c-2.1,0-3.1,0.7-3.8,2.8l-10.5,30.9c-0.6,1.7-1.4,4.4-1.8,6.4l-1.7,0c-0.5-2.2-1.2-4.7-1.8-6.3l-11.1-31c-0.7-2-1.8-2.8-3.9-2.8
	c-1.4,0-2.6,0.3-2.9,0.9c-0.1,0.1-0.3,0.5,0,1.3l17.5,47.7l-2.5,7.5c-0.9,2.6-2.2,6.1-6.3,6.1c-0.5,0-1.1-0.1-1.8-0.2
	c-0.4-0.1-0.9-0.2-1.2-0.2c-1.2,0-1.8,0.6-1.9,1.9c-0.3,2.8,1.6,3.4,1.9,3.5c1.2,0.3,2.4,0.4,3.4,0.4
	C600.4,140,603,134.4,605.4,127.7z M640.9,138.2v-24.8l1.6,2.3c3.4,4.9,8.3,7.7,13.6,7.7c17.2,0,19.8-16.5,19.8-26.4
	c0-17.5-6.3-26.4-18.7-26.4c-6.3,0-11.4,3-15.2,8.9l-1.6,2.5v-8.5c0-1.8-0.8-2.5-2.7-2.5c-2.1,0-3,0.8-3,2.5v64.6c0,0.6,0,2.5,3,2.5
	C640.6,140.7,640.9,139.3,640.9,138.2z M668.9,97.1c0,5.2,0,21.2-13.2,21.2c-9.6,0-14.9-10-14.9-19.5v-4.9c0-12.3,7.7-18,14.9-18
	C668.9,75.9,668.9,91.8,668.9,97.1z M723.5,120.5V73.6c0-1.2-0.3-2.5-3-2.5c-3,0-3,1.9-3,2.5v19.9h-23.8V73.6c0-1.2-0.3-2.5-3-2.5
	c-3,0-3,1.9-3,2.5v46.9c0,1.1,0.3,2.6,3,2.6c2.7,0,3-1.3,3-2.6V98h23.8v22.5c0,1.1,0.3,2.6,3,2.6
	C723.1,123.1,723.5,121.8,723.5,120.5z M766.5,113.3l1.6,0.4c0,3.2,0.3,5,0.6,6.5c0.4,1.9,1.8,2.3,3,2.3c0.2,0,0.4,0,0.6,0
	c1.6-0.3,2.4-0.8,2.1-2.9c-0.3-1.8-0.4-4-0.4-6.6v-22c0-14.2-5.5-20.3-18.3-20.3c-7.5,0-12.9,1.5-16.4,4.5c-0.9,0.8-1.4,1.6-1.4,2.3
	c0,0.7,0.5,1.3,0.9,1.6c0.7,0.6,1.4,0.9,2.2,0.9c0.7,0,1.3-0.3,2-0.8c3.5-2.7,7.2-4,11.6-4c3.1,0,10.6,0.6,12.6,6.6
	c0.6,2,0.9,5,0.9,9.2v0.9l-3.2-0.1c-1.9-0.1-3.3-0.1-4.3-0.1c-17.6,0-26.5,5.8-26.5,17.2c0,9,6.1,14.9,15.5,14.9
	C757.6,123.5,763.2,120.1,766.5,113.3z M767.3,96l0.7,0l0.1,0.7c0.5,7.2-1,12.4-4.6,16.6c-3.2,3.7-7.3,5.6-12.2,5.6
	c-6.4,0-10.4-3.9-10.4-10.1c0-4.9,2.5-13.3,19.2-13.3C761.7,95.7,764.1,95.8,767.3,96z M819.4,120.5V73.6c0-1.2-0.3-2.5-3-2.5
	c-3,0-3,1.9-3,2.5V90c0,4.9-3.3,10.2-12.5,10.2c-8,0-9.6-4.6-9.6-12.2V73.6c0-1.2-0.3-2.5-3-2.5c-3,0-3,1.9-3,2.5v16.8
	c0,9.4,4.9,14,15,14c4.8,0,9.3-1.6,11.7-4.1l1.5-1.6v21.9c0,1.1,0.3,2.6,3,2.6C819,123.1,819.4,121.8,819.4,120.5z M872.4,110
	c0.2-0.8,0.1-1.5-0.3-2c-0.5-0.7-1.3-0.9-1.9-1c-0.1,0-0.3,0-0.4,0c-1.5,0-2.7,0.8-3.1,2c-1.9,5.9-6.7,9.5-13,9.5
	c-9.8,0-15.4-7.6-15.6-20.7l0-0.9h27.5c6.8,0,7.3-2.7,7.3-6.1c0.1-6-1.7-11.1-5.3-14.8c-3.5-3.6-8.5-5.5-14.4-5.5
	c-7.4,0-13.1,2.7-16.9,8.1c-3.4,4.7-5.1,11.1-5.1,18.6c0,12.1,5.8,26.3,22.2,26.3C863,123.5,870.5,118.2,872.4,110z M867.1,89.3
	c0.1,2.7-1.6,3.2-2.9,3.3h-25.8l0-0.9c0.2-8,6.1-16.7,15.2-16.7C861.7,75,866.8,80.4,867.1,89.3z M908.9,122.1
	c8.1,0,14.2-5.8,14.2-13.5c0-6.5-3-10.7-8.9-12.5l-2.4-0.7l2.3-0.9c4.8-1.9,7-5.2,7-10.8c0-7.6-5-11.6-14.6-11.6h-14.9
	c-6.9,0-6.9,3.7-6.9,8.4v33.2c0,4.7,0,8.5,6.9,8.5H908.9z M891,97.9h15.6c6.3,0,9.7,3.4,9.7,10c0,6.4-3.2,9.7-9.7,9.7h-12.1
	c-2.9,0-3.5-1.4-3.5-3.5V97.9z M906.6,76.6c5.4,0,8.3,2.8,8.3,8.2c0,5.3-3.2,8.8-8.3,8.8H891V80c0-1.7,0.4-3.4,3.5-3.4H906.6z
	 M963.1,113.3l1.6,0.4c0,3.2,0.3,5,0.6,6.5c0.4,1.9,1.8,2.3,3,2.3c0.2,0,0.4,0,0.6,0c1.6-0.3,2.4-0.8,2.1-2.9
	c-0.3-1.8-0.4-4-0.4-6.6v-22c0-14.2-5.5-20.3-18.3-20.3c-7.5,0-12.9,1.5-16.4,4.5c-0.9,0.8-1.4,1.6-1.4,2.3c0,0.7,0.5,1.3,0.9,1.6
	c0.7,0.6,1.4,0.9,2.2,0.9c0.7,0,1.3-0.3,2-0.8c3.5-2.7,7.2-4,11.6-4c3.1,0,10.6,0.6,12.6,6.6c0.6,2,0.9,5,0.9,9.2v0.9l-3.2-0.1
	c-1.9-0.1-3.3-0.1-4.3-0.1c-17.6,0-26.5,5.8-26.5,17.2c0,9,6.1,14.9,15.5,14.9C954.2,123.5,959.8,120.1,963.1,113.3z M963.9,96
	l0.7,0l0.1,0.7c0.5,7.2-1,12.4-4.6,16.6c-3.2,3.7-7.3,5.6-12.2,5.6c-6.4,0-10.4-3.9-10.4-10.1c0-4.9,2.5-13.3,19.2-13.3
	C958.3,95.7,960.7,95.8,963.9,96z M38.4,122.1c1.1,0,2.5-0.3,2.5-2.9c0-2.7-1.4-3-2.5-3H11.3c-2.4,0-3.6-1.2-3.6-3.7V89.4h24.5
	c1.2,0,2.3-0.3,2.3-2.8s-1.1-2.8-2.3-2.8H7.8V63.5c0-2.5,1.1-3.7,3.6-3.7h27.1c1.1,0,2.5-0.3,2.5-3c0-2.7-1.4-3-2.5-3H8.3
	c-5.2,0-7.4,2.4-7.4,8.3v51.6c0,5.9,2.1,8.3,7.4,8.3H38.4z M86.1,123.1c0.5-0.1,1.2-0.3,1.5-0.8c0.2-0.3,0.1-0.8-0.1-1.3
	c-0.6-1.4-1.1-2.5-1.6-3.6c-1.2-2.7-2.3-5-3.9-9.7c-1.8-5.3-4.7-11.7-11.8-13l-2.8-0.5l2.7-1.1c3.5-1.4,6.5-4.2,9.1-8.5
	c1.2-1.9,2.3-3.9,3.3-5.8c0.9-1.7,1.9-3.4,2.9-5c0.5-0.9,0.7-1.6,0.5-1.9c-0.2-0.4-1-0.7-2.1-0.8c-0.2,0-0.5,0-0.7,0
	c-1.8,0-2.7,0.8-3.2,1.5c-1.4,2-2.5,4.1-3.6,6.1c-0.8,1.5-1.5,3-2.4,4.4c-3,5.2-6.6,8.9-14.3,9.6l-0.9,0.1V73.6c0-0.6,0-2.5-3-2.5
	c-2.7,0-3,1.4-3,2.5v46.9c0,1.3,0.4,2.6,3,2.6c2.7,0,3-1.5,3-2.6V97l0.8,0c0.5,0,1,0,1.5,0c10.6,0,13.5,6,16.2,13.8
	c0.3,0.8,0.6,1.7,0.9,2.5c1.2,3.5,2.5,7.1,4.4,9.2c0.3,0.4,1.3,0.8,2.6,0.8C85.5,123.2,85.8,123.2,86.1,123.1z M125.7,113.3l1.6,0.4
	c0,3.2,0.3,5,0.6,6.5c0.4,1.9,1.8,2.3,3,2.3c0.2,0,0.4,0,0.6,0c1.6-0.3,2.4-0.8,2.1-2.9c-0.3-1.8-0.4-4-0.4-6.6v-22
	c0-14.2-5.5-20.3-18.3-20.3c-7.5,0-12.9,1.5-16.4,4.5c-0.9,0.8-1.4,1.6-1.4,2.3c0,0.7,0.5,1.3,0.9,1.6c0.7,0.6,1.4,0.9,2.2,0.9
	c0.7,0,1.3-0.3,2-0.8c3.5-2.7,7.2-4,11.6-4c3.1,0,10.6,0.6,12.6,6.6c0.6,2,0.9,5,0.9,9.2v0.9l-3.2-0.1c-1.9-0.1-3.3-0.1-4.3-0.1
	c-17.6,0-26.5,5.8-26.5,17.2c0,9,6.1,14.9,15.5,14.9C116.8,123.5,122.5,120.1,125.7,113.3z M126.6,96l0.7,0l0.1,0.7
	c0.5,7.2-1,12.4-4.6,16.6c-3.2,3.7-7.3,5.6-12.2,5.6c-6.4,0-10.4-3.9-10.4-10.1c0-4.9,2.5-13.3,19.2-13.3
	C120.9,95.7,123.4,95.8,126.6,96z M159.7,120.5V76.6h12.3c1,0,1.8-0.3,1.8-2.3c0-2-0.9-2.2-1.8-2.2h-30.5c-0.5,0-1.9,0-1.9,2.2
	c0,2.1,1,2.3,1.9,2.3h12.2v43.9c0,1.1,0.3,2.6,3,2.6C159.3,123.1,159.7,121.8,159.7,120.5z M218.8,110c0.2-0.8,0.1-1.5-0.3-2
	c-0.5-0.7-1.3-0.9-1.9-1c-0.1,0-0.3,0-0.4,0c-1.5,0-2.7,0.8-3.1,2c-1.9,5.9-6.7,9.5-13,9.5c-9.8,0-15.4-7.6-15.6-20.7l0-0.9H212
	c6.8,0,7.3-2.7,7.4-6.1c0.1-6-1.7-11.1-5.3-14.8c-3.5-3.6-8.5-5.5-14.4-5.5c-7.4,0-13.1,2.7-16.9,8.1c-3.4,4.7-5.1,11.1-5.1,18.6
	c0,12.1,5.8,26.3,22.2,26.3C209.3,123.5,216.8,118.2,218.8,110z M213.5,89.3c0.1,2.7-1.6,3.2-2.9,3.3h-25.8l0-0.9
	c0.2-8,6.1-16.7,15.2-16.7C208.1,75,213.1,80.4,213.5,89.3z M237.4,138.2v-24.8l1.6,2.3c3.3,4.9,8.3,7.7,13.6,7.7
	c17.2,0,19.8-16.5,19.8-26.4c0-17.5-6.3-26.4-18.7-26.4c-6.3,0-11.4,3-15.2,8.9l-1.6,2.5v-8.5c0-1.8-0.8-2.5-2.7-2.5
	c-2.1,0-3,0.8-3,2.5v64.6c0,0.6,0,2.5,3,2.5C237,140.7,237.4,139.3,237.4,138.2z M265.4,97.1c0,5.2,0,21.2-13.2,21.2
	c-9.6,0-14.9-10-14.9-19.5v-4.9c0-8.6,4.6-18,14.9-18C265.4,75.9,265.4,91.8,265.4,97.1z M321.6,120.5V73.6c0-1.2-0.3-2.5-3-2.5
	c-1.4,0-2.2,0.3-2.7,1l-19.5,31.2c-1.6,2.6-3.3,5.6-4.5,8.4l-1.6-0.3V73.6c0-1.1-0.3-2.5-3.2-2.5c-3,0-3,1.9-3,2.5v46.9
	c0,1.1,0.3,2.6,3,2.6c0.5,0,2.1-0.1,2.8-1.2l19.8-31.5c0.3-0.5,0.6-1,0.9-1.5c1.2-2,2.5-4,3.3-6.1l1.6,0.3v37.4c0,1.1,0.3,2.6,3,2.6
	C321.2,123.1,321.6,121.8,321.6,120.5z M372.3,120.5V73.6c0-1.2-0.3-2.5-3-2.5c-3,0-3,1.9-3,2.5v19.9h-23.8V73.6
	c0-1.2-0.3-2.5-3-2.5c-3,0-3,1.9-3,2.5v46.9c0,1.1,0.3,2.6,3,2.6c2.7,0,3-1.3,3-2.6V98h23.8v22.5c0,1.1,0.3,2.6,3,2.6
	C371.9,123.1,372.3,121.8,372.3,120.5z M415.2,113.3l1.6,0.4c0,3.2,0.3,5,0.6,6.5c0.4,1.9,1.8,2.3,3,2.3c0.2,0,0.4,0,0.6,0
	c1.6-0.3,2.4-0.8,2.1-2.9c-0.3-1.8-0.4-4-0.4-6.6v-22c0-14.2-5.5-20.3-18.3-20.3c-7.5,0-12.9,1.5-16.4,4.5c-0.9,0.8-1.4,1.6-1.4,2.3
	c0,0.7,0.5,1.3,0.9,1.6c0.7,0.6,1.4,0.9,2.2,0.9c0.7,0,1.3-0.3,2-0.8c3.5-2.7,7.2-4,11.6-4c3.1,0,10.6,0.6,12.6,6.6
	c0.6,2,0.9,5,0.9,9.2v0.9l-3.2-0.1c-1.9-0.1-3.3-0.1-4.3-0.1c-17.6,0-26.5,5.8-26.5,17.2c0,9,6.1,14.9,15.5,14.9
	C406.3,123.5,412,120.1,415.2,113.3z M416.1,96l0.7,0l0.1,0.7c0.5,7.2-1,12.4-4.6,16.6c-3.2,3.7-7.3,5.6-12.2,5.6
	c-6.4,0-10.4-3.9-10.4-10.1c0-4.9,2.5-13.3,19.2-13.3C410.4,95.7,412.9,95.8,416.1,96z"/>
</svg>
