<?xml version="1.0" encoding="utf-8"?>
<svg version="1.1" id="_x31_" xmlns="http://www.w3.org/2000/svg" xmlns:xlink="http://www.w3.org/1999/xlink" x="0px" y="0px"
	 viewBox="0 0 14.7 14.7" style="enable-background:new 0 0 14.7 14.7;" xml:space="preserve">
<style type="text/css">
	.st0{fill:#FFFFFF;}
	.st1{fill:#1C2020;}
</style>
<circle id="_x33_" class="st0" cx="7.3" cy="7.3" r="7.3"/>
<path id="_x32_" class="st1" d="M11.2,9.4c0,0-0.2-0.3-0.8-1c-0.7-0.7-0.6-0.6,0.2-1.7c0.5-0.7,0.7-1.1,0.6-1.3
	c0-0.1-0.4-0.1-0.4-0.1H9.6c0,0-0.2,0-0.3,0.1c-0.1,0.2-0.2,0.5-0.4,1c-0.5,1-0.8,1-0.8,1C7.8,7.3,7.9,6.9,7.9,6.6
	c0-0.9,0.1-1.3-0.3-1.4c-0.1,0-0.2,0-0.6-0.1c-0.5,0-0.8,0-1,0.1C5.9,5.3,5.8,5.5,5.9,5.5c0.1,0,0.3,0.1,0.4,0.2
	c0.1,0.2,0.1,0.6,0.1,0.6s0.1,1.1-0.2,1.2C6,7.6,5.8,7.4,5.3,6.5C5.1,6.1,5,5.8,4.9,5.6C4.8,5.4,4.6,5.4,4.6,5.4H3.4
	c0,0-0.2,0-0.2,0c-0.1,0.1,0,0.2,0,0.2S4.1,7.9,5.1,9c0.9,1,2,1,2,1s0.6,0,0.7-0.1c0.1-0.1,0.1-0.2,0.1-0.2s0-0.7,0.3-0.8
	c0.3-0.1,0.7,0.7,1.1,1C9.6,10,9.7,10,9.8,10c0.3,0,1.1,0,1.1,0S11.5,9.9,11.2,9.4z"/>
</svg>
