<?xml version="1.0" encoding="utf-8"?>
<svg version="1.1" id="_x31_" xmlns="http://www.w3.org/2000/svg" xmlns:xlink="http://www.w3.org/1999/xlink" x="0px" y="0px"
	 viewBox="0 0 14.7 14.7" style="enable-background:new 0 0 14.7 14.7;" xml:space="preserve">
<style type="text/css">
	.st0{fill:#FFFFFF;}
	.st1{fill:#1C2020;}
</style>
<circle id="_x33_" class="st0" cx="7.3" cy="7.3" r="7.3"/>
<path id="_x32_" class="st1" d="M8.1,4.9c0.4,0,0.7,0,1.1,0c0-0.2,0-1,0-1.6c-0.5,0-1,0-1.2,0c-1.7,0-1.7,1.4-1.7,1.6
	c0,0.1,0,0.5,0,1.1H5.4v1.6h0.8c0,1.8,0,3.7,0,3.7h1.6c0,0,0-2,0-3.7h1.1L9.1,6H7.8c0-0.5,0-0.8,0-0.8C7.8,5,7.9,4.9,8.1,4.9z"/>
</svg>
