<?xml version="1.0" encoding="utf-8"?>
<svg version="1.1" id="_x31_" xmlns="http://www.w3.org/2000/svg" xmlns:xlink="http://www.w3.org/1999/xlink" x="0px" y="0px"
	 viewBox="0 0 14.7 14.7" style="enable-background:new 0 0 14.7 14.7;" xml:space="preserve">
<style type="text/css">
	.st0{fill:#1C2020;}
	.st1{fill:#ffffff;}
</style>
<circle id="_x33_" class="st0" cx="7.3" cy="7.3" r="7.3"/>
<path id="_x32_" class="st1" d="M5.3,11.4c-1.2,0-2.2-1-2.2-2.3V5.4c0-1.2,1-2.3,2.2-2.3h3.8c1.2,0,2.2,1,2.2,2.3v3.7
	c0,1.2-1,2.3-2.2,2.3H5.3z M5.4,4.1C4.6,4.1,4,4.7,4,5.5v3.6c0,0.8,0.6,1.4,1.4,1.4h3.7c0.8,0,1.4-0.6,1.4-1.4V5.5
	c0-0.8-0.6-1.4-1.4-1.4L5.4,4.1z M7.2,9.4c-1.2,0-2.1-1-2.1-2.2s0.9-2.2,2.1-2.2c1.2,0,2.1,1,2.1,2.2S8.4,9.4,7.2,9.4z M7.2,6
	C6.5,6,6,6.6,6,7.3C6,8,6.5,8.5,7.2,8.5S8.4,8,8.4,7.3C8.4,6.6,7.9,6,7.2,6z M9.9,5.1c0-0.3-0.2-0.6-0.5-0.6c-0.3,0-0.5,0.2-0.5,0.6
	s0.2,0.6,0.5,0.6C9.7,5.7,9.9,5.4,9.9,5.1z"/>
</svg>
