<svg xmlns="http://www.w3.org/2000/svg" viewBox="0 0 37.5 146"><defs><style>.cls-1{fill:#24c9ac;}</style></defs><title>Ресурс 1</title><g id="Слой_2" data-name="Слой 2"><g id="_0" data-name="0"><path id="_2" data-name="2" class="cls-1" d="M37.5,141.2V69.9a4.8,4.8,0,0,0-3.1-4.5V57.5A4.8,4.8,0,0,0,31.3,53V17.2A17,17,0,0,0,14.2,0c-5.2,0-8,2.8-8,8V53a4.9,4.9,0,0,0-3.1,4.5v7.9A4.9,4.9,0,0,0,0,69.9v71.3A4.8,4.8,0,0,0,4.8,146H32.7A4.8,4.8,0,0,0,37.5,141.2ZM32.7,68.6A1.43,1.43,0,0,1,34.1,70v71.3a1.43,1.43,0,0,1-1.4,1.4H4.8a1.43,1.43,0,0,1-1.4-1.4V69.9a1.43,1.43,0,0,1,1.4-1.4H32.7ZM6.6,57.5A1.43,1.43,0,0,1,8,56.1H29.7a1.43,1.43,0,0,1,1.4,1.4v7.6H6.7V57.5ZM9.7,8.1c0-3.3,1.2-4.5,4.5-4.5A13.57,13.57,0,0,1,27.9,17.3V52.7H9.7Z"/></g></g></svg>