<?xml version="1.0" encoding="utf-8"?>
<svg version="1.1" id="_x31_" xmlns="http://www.w3.org/2000/svg" xmlns:xlink="http://www.w3.org/1999/xlink" x="0px" y="0px"
	 viewBox="0 0 628.9 628.8" style="enable-background:new 0 0 628.9 628.8;" xml:space="preserve">
<style type="text/css">
	.st0{fill:#24C9AC;}
	.st1{fill:#FFFFFF;}
</style>
<path id="_x33_" class="st0" d="M628.9,314.4c0,30.8-4.4,60.5-12.6,88.6c-1.4,4.8-2.9,9.5-4.5,14.2l0,0
	c-19.6,56.8-55,106.1-101,142.9c-2.1,1.7-4.2,3.4-6.4,5c-52.8,40-118.5,63.8-189.9,63.8s-137.1-23.8-189.9-63.8
	c-2.2-1.7-4.4-3.4-6.5-5.1c-46-36.9-81.5-86.4-101-143.4v0c-1.5-4.5-3-9-4.3-13.6C4.4,374.9,0,345.2,0,314.4
	C0,140.8,140.8,0,314.4,0S628.9,140.8,628.9,314.4z"/>
<path id="_x32_" class="st1" d="M315.4,329.6c-14.8,0-26.9,12.1-26.9,26.9c0,14.8,12.1,26.9,26.9,26.9s26.9-12.1,26.9-26.9
	C342.3,341.7,330.2,329.6,315.4,329.6z M317.8,333.1l7.4,3.8c4.1,2.1,7.5,5.4,9.6,9.6l3.8,7.4h-20.8V333.1z M334.8,366.3
	c-3.7,7.4-11.2,12-19.5,12c-12.1,0-21.9-9.8-21.9-21.9c0-8.2,4.6-15.7,12-19.5l7.4-3.8v23.3c0,1.4,1.1,2.5,2.5,2.5h23.3L334.8,366.3
	z M329.1,73.7c-0.4-1-1.3-1.7-2.4-1.7c-0.2,0-0.4,0-0.6,0.1l-7.7,2l-0.5-8c-0.1-1.3-1.2-2.3-2.5-2.3s-2.4,1-2.5,2.3l-0.5,8l-7.7-2
	c-0.2-0.1-0.4-0.1-0.6-0.1c-1.1,0-2.1,0.7-2.4,1.7c-0.4,1.3,0.3,2.6,1.5,3.1l7.4,2.9l-4.3,6.7c-0.7,1.2-0.5,2.6,0.6,3.4
	c0.6,0.4,1.1,0.5,1.5,0.5c0.7,0,1.4-0.3,1.9-0.9l5.1-6.2l5.1,6.2c0.4,0.6,1.1,0.9,1.9,0.9c0.4,0,1-0.1,1.5-0.5
	c1-0.8,1.3-2.3,0.6-3.4l-4.3-6.7l7.4-2.9C328.9,76.3,329.5,75,329.1,73.7z M380.3,560.1V407.7h9.5c1.4,0,2.5-1.1,2.5-2.5
	c0-1.4-1.1-2.5-2.5-2.5h-28.5v-87l4.7-0.4c1.3-0.1,2.3-1.2,2.3-2.5c0-1.4-1.1-2.5-2.5-2.5h-15.2v-90.8c0-1.4-1.1-2.5-2.5-2.5h-9
	l-21.3-108c-0.2-1.2-1.2-2-2.4-2s-2.3,0.8-2.5,2l-21.3,108h-9c-1.4,0-2.5,1.1-2.5,2.5v90.8h-15.2c-1.4,0-2.5,1.1-2.5,2.5
	c0,1.3,1,2.4,2.3,2.5l4.7,0.4v18.2c0,1.4,1.1,2.5,2.5,2.5c1.4,0,2.5-1.1,2.5-2.5v-18.7h82v87.4h-82v-43.4c0-1.4-1.1-2.5-2.5-2.5
	c-1.4,0-2.5,1.1-2.5,2.5v43.4h-29c-1.4,0-2.5,1.1-2.5,2.5s1.1,2.5,2.5,2.5h9.5V560H118c2.2,1.7,4.3,3.4,6.5,5.1h379.7
	c2.2-1.6,4.3-3.3,6.4-5H380.3z M307.6,161.6l2.8-13.9l5-25.3l5,25.3l4.6,23.4l9.1,45.9h-37.4L307.6,161.6z M345.6,310.3h-60.5v-26.8
	h60.5V310.3z M345.6,278.5h-16.3V237c0-1.4-1.1-2.5-2.5-2.5c-1.4,0-2.5,1.1-2.5,2.5v41.5h-17.9V237c0-1.4-1.1-2.5-2.5-2.5
	c-1.4,0-2.5,1.1-2.5,2.5v41.5h-16.3v-56.6h60.5V278.5z M313.3,560.1h-20.6v-31.6c0-8.3,4.5-15.9,11.7-19.9c0.6-0.4,1.2-0.7,1.7-0.9
	l7.2-3.3V560.1z M338.3,560h-19.9v-55.4l7.2,3.3c0.3,0.2,0.6,0.3,0.9,0.5l0.1,0.1c7.2,4,11.7,11.6,11.7,19.9V560z M375.4,560h-32.1
	v-31.6c0-10-5.4-19.3-14.2-24.2l-0.3-0.2c-4.1-2.2-8.7-3.4-13.3-3.4c-4.7,0-9.3,1.2-13.5,3.5c-8.8,4.9-14.3,14.2-14.3,24.3V560
	h-32.9v-93.4h120.6V560z M375.4,461.6h-20.5v-28.3c0-1.4-1.1-2.5-2.5-2.5c-1.3,0-2.5,1.1-2.5,2.5v28.3h-20.7v-28.3
	c0-1.4-1.1-2.5-2.5-2.5s-2.5,1.1-2.5,2.5v28.3h-20.7v-28.3c0-1.4-1.1-2.5-2.5-2.5c-1.4,0-2.5,1.1-2.5,2.5v28.3h-20.7v-28.3
	c0-1.4-1.1-2.5-2.5-2.5c-1.4,0-2.5,1.1-2.5,2.5v28.3h-18v-54h120.6V461.6z M444.7,511.7h-15.2c-1.4,0-2.5,1.1-2.5,2.5
	c0,1.4,1.1,2.5,2.5,2.5h15.2c1.4,0,2.5-1.1,2.5-2.5C447.2,512.8,446.1,511.7,444.7,511.7z M491.3,526.8h-15.2
	c-1.4,0-2.5,1.1-2.5,2.5c0,1.4,1.1,2.5,2.5,2.5h15.2c1.4,0,2.5-1.1,2.5-2.5C493.8,527.9,492.7,526.8,491.3,526.8z M127.8,505.6
	h-15.2c-1.4,0-2.5,1.1-2.5,2.5c0,1.4,1.1,2.5,2.5,2.5h15.2c1.4,0,2.5-1.1,2.5-2.5C130.3,506.7,129.2,505.6,127.8,505.6z
	 M181.5,524.8h-15.2c-1.4,0-2.5,1.1-2.5,2.5c0,1.4,1.1,2.5,2.5,2.5h15.2c1.4,0,2.5-1.1,2.5-2.5C184,525.9,182.9,524.8,181.5,524.8z
	 M540.1,402.3c-7.6,0-14.7,3.3-19.7,9l-3.9,4.5l-3.9-4.5c-5-5.7-12.2-9-19.7-9c-1.4,0-2.5,1.1-2.5,2.5v56H468v-14.5
	c0-1.4-1.1-2.5-2.5-2.5c-1.4,0-2.5,1.1-2.5,2.5v17c0,1.4,1.1,2.5,2.5,2.5h27.3c1.4,0,2.5-1.1,2.5-2.5v-57.5l7.5,4.1
	c6.8,3.7,11,10.8,11,18.5c0,1.4,1.1,2.5,2.5,2.5c1.4,0,2.5-1.1,2.5-2.5c0-7.7,4.2-14.8,11-18.5l7.5-4.1v57.5c0,1.4,1.1,2.5,2.5,2.5
	h2.8v-61C542.6,403.4,541.5,402.3,540.1,402.3z M465.5,402.3c-7.6,0-14.7,3.3-19.7,9l-3.9,4.5l-3.9-4.5c-5-5.7-12.2-9-19.7-9
	c-1.4,0-2.5,1.1-2.5,2.5v56h-14.7c-1.4,0-2.5,1.1-2.5,2.5c0,1.4,1.1,2.5,2.5,2.5h17.2c1.4,0,2.5-1.1,2.5-2.5v-57.5l7.5,4.1
	c6.8,3.7,11,10.8,11,18.5c0,1.4,1.1,2.5,2.5,2.5c1.4,0,2.5-1.1,2.5-2.5c0-7.7,4.2-14.8,11-18.5l7.7-4.1V421c0,1.4,1.1,2.5,2.5,2.5
	c1.4,0,2.5-1.1,2.5-2.5v-16.2C468,403.4,466.9,402.3,465.5,402.3z M227.8,460.8h-14.7v-56c0-1.4-1.1-2.5-2.5-2.5
	c-7.6,0-14.7,3.3-19.7,9l-3.9,4.5l-3.9-4.5c-5-5.7-12.2-9-19.7-9c-1.4,0-2.5,1.1-2.5,2.5v56h-22.4v-56c0-1.4-1.1-2.5-2.5-2.5
	c-7.6,0-14.7,3.3-19.7,9l-3.9,4.5l-3.9-4.5c-5-5.7-12.2-9-19.7-9c-1.4,0-2.5,1.1-2.5,2.5v61H89c1.4,0,2.5-1.1,2.5-2.5v-57.5l7.5,4.1
	c6.8,3.7,11,10.8,11,18.5c0,1.4,1.1,2.5,2.5,2.5c1.4,0,2.5-1.1,2.5-2.5c0-7.7,4.2-14.8,11-18.5l7.5-4.1v57.5c0,1.4,1.1,2.5,2.5,2.5
	h27.3c1.4,0,2.5-1.1,2.5-2.5v-57.5l7.5,4.1c6.8,3.7,11,10.8,11,18.5c0,1.4,1.1,2.5,2.5,2.5c1.4,0,2.5-1.1,2.5-2.5
	c0-7.7,4.2-14.8,11-18.5l7.5-4.1v57.5c0,1.4,1.1,2.5,2.5,2.5h17.5c1.4,0,2.5-1.1,2.5-2.5C230.3,461.9,229.2,460.8,227.8,460.8z
	 M614.5,402.3c-7.6,0-14.7,3.3-19.7,9l-3.9,4.5l-3.9-4.5c-5-5.7-12.2-9-19.7-9c-1.4,0-2.5,1.1-2.5,2.5v56h-12.2v5h14.6
	c1.4,0,2.5-1.1,2.5-2.5v-57.5l7.5,4.1c6.8,3.7,11,10.8,11,18.5c0,1.4,1.1,2.5,2.5,2.5s2.5-1.1,2.5-2.5c0-7.7,4.2-14.8,11-18.5
	l7.5-4.1v11.4l0,0l4.5-14.2C615.8,402.5,615.2,402.3,614.5,402.3z M64.2,460.8v-56c0-1.4-1.1-2.5-2.5-2.5c-7.6,0-14.7,3.3-19.7,9
	l-3.9,4.5l-3.9-4.5c-5-5.7-12.2-9-19.7-9c-0.7,0-1.4,0.3-1.8,0.8l4.3,13.6v-10.8l7.5,4.1c6.8,3.7,11,10.8,11,18.5
	c0,1.4,1.1,2.5,2.5,2.5c1.4,0,2.5-1.1,2.5-2.5c0-7.7,4.2-14.8,11-18.5l7.5-4.1v57.5c0,1.4,1.1,2.5,2.5,2.5h14.8v-5H64.2z"/>
</svg>
