<?xml version="1.0" encoding="utf-8"?>
<svg version="1.1" id="_x31_" xmlns="http://www.w3.org/2000/svg" xmlns:xlink="http://www.w3.org/1999/xlink" x="0px" y="0px"
	 viewBox="0 0 512 512" style="enable-background:new 0 0 512 512;" xml:space="preserve">
<style type="text/css">
	.st0{fill:#24C9AC;}
	.st1{fill:#F2EBD9;}
	.st2{fill:#FFFFFF;}
	.st3{fill:#6DA8D6;}
	.st4{fill:#BD1515;}
	.st5{fill:#F2484B;}
</style>
<path id="_x37_" class="st0" d="M426.5,444.7l-67.4-11.3v-81.1h101.4v59.2C460.5,430.1,445.1,444.7,426.5,444.7z M426.5,0
	l-67.4,11.3v81.1h101.4V33.2C460.5,14.5,445.1,0,426.5,0z"/>
<path id="_x36_" class="st1" d="M392.9,410.7v-377c0-18.6,15-33.7,33.6-33.7H85.2C66.6,0,51.5,14.5,51.5,33.2v377.5
	c0,18.6,15.1,34.3,33.7,34.3l341.3-0.3C407.9,444.6,392.9,429.3,392.9,410.7z"/>
<polygon id="_x35_" class="st2" points="176.6,371.2 176.6,512 221.6,489.5 266.7,512 266.7,371.2 "/>
<path id="_x34_" class="st3" d="M334.9,179.7H109.6c-4.7,0-8.4-3.8-8.4-8.4s3.8-8.4,8.4-8.4h225.3c4.7,0,8.4,3.8,8.4,8.4
	S339.5,179.7,334.9,179.7z M301.1,213.5H143.3c-4.7,0-8.4-3.8-8.4-8.4s3.8-8.4,8.4-8.4H301c4.7,0,8.4,3.8,8.4,8.4
	S305.7,213.5,301.1,213.5z M334.9,145.9h-33.8c-4.7,0-8.4-3.8-8.4-8.4s3.8-8.4,8.4-8.4h33.8c4.7,0,8.4,3.8,8.4,8.4
	S339.5,145.9,334.9,145.9z M267.3,145.9H109.6c-4.7,0-8.4-3.8-8.4-8.4s3.8-8.4,8.4-8.4h157.7c4.7,0,8.4,3.8,8.4,8.4
	S271.9,145.9,267.3,145.9z M307.6,87.4l-26.3-33.8c-1.6-2.1-4.1-3.3-6.7-3.3s-5.1,1.2-6.7,3.3l-19.6,25.2l-19.6-25.2
	c-1.6-2.1-4.1-3.3-6.7-3.3c-2.6,0-5.1,1.2-6.7,3.3l-19.6,25.2l-19.6-25.2c-1.6-2.1-4.1-3.3-6.7-3.3c-2.6,0-5.1,1.2-6.7,3.3
	l-26.3,33.8c-2.9,3.7-2.2,9,1.5,11.9s9,2.2,11.9-1.5l19.6-25.2L189,97.8c1.6,2.1,4.1,3.3,6.7,3.3c2.6,0,5.1-1.2,6.7-3.3L222,72.5
	l19.6,25.2c1.6,2.1,4.1,3.3,6.7,3.3s5.1-1.2,6.7-3.3l19.6-25.2l19.6,25.2c2.9,3.7,8.2,4.3,11.9,1.5
	C309.8,96.4,310.4,91.1,307.6,87.4z"/>
<path id="_x33_" class="st4" d="M222,264.6c37.3,0,67.6,30.3,67.6,67.6s-30.3,67.6-67.6,67.6s-67.6-30.3-67.6-67.6
	C154.4,294.8,184.7,264.6,222,264.6z"/>
<path id="_x32_" class="st5" d="M222,298.4c18.7,0,33.8,15.1,33.8,33.8c0,18.7-15.1,33.8-33.8,33.8s-33.8-15.1-33.8-33.8
	S203.4,298.4,222,298.4z"/>
</svg>
