<?xml version="1.0" encoding="utf-8"?>
<svg version="1.1" id="Capa_1" xmlns="http://www.w3.org/2000/svg" xmlns:xlink="http://www.w3.org/1999/xlink" x="0px" y="0px"
	 viewBox="0 0 175.2 175.2" style="enable-background:new 0 0 175.2 175.2;" xml:space="preserve">
<style type="text/css">
	.st0{fill:#C79369;}
	.st1{fill:#080808;}
	.st2{fill:#E7B791;}
	.st3{fill:#5E3A1D;}
	.st4{fill:#F5F0F0;}
	.st5{opacity:0.5;fill:#F5F0F0;enable-background:new    ;}
	.st6{fill:#323232;}
	.st7{fill:#1A1A1A;}
</style>
<path class="st0" d="M83.4,52c12.3,0.8,30.2-1,44.4-6.7l1.5,3.9c-12.5,7-32.3,12.5-41.8,13C76.1,62.9,71,51.3,83.4,52z"/>
<path class="st1" d="M117,46.2c-8.2,10.7-22.5,24.3-37.4,32l2.2,4c14.8-5.3,33.6-17.8,40.8-25.3C131.3,48,125.3,35.4,117,46.2z"/>
<rect x="71.2" y="43.3" transform="matrix(0.9546 -0.298 0.298 0.9546 -11.8545 25.2833)" class="st0" width="11.6" height="16.4"/>
<path class="st2" d="M84.7,89.2L74.4,69.8l-2.6-15.1c3.8-0.5,7.5-1.7,11.1-3.5c3,0.5,7.6,6.5,8.7,12.3l4.4,22.1L84.7,89.2z"/>
<ellipse transform="matrix(0.9546 -0.298 0.298 0.9546 -4.6096 15.4551)" class="st3" cx="48.4" cy="22.8" rx="15.5" ry="15.4"/>
<ellipse transform="matrix(0.9546 -0.298 0.298 0.9546 -6.2518 20.9986)" class="st4" cx="65.7" cy="31" rx="15.5" ry="15.4"/>
<ellipse transform="matrix(0.9546 -0.298 0.298 0.9546 -6.8903 22.8627)" class="st2" cx="71.5" cy="34" rx="20.2" ry="19.6"/>
<path class="st4" d="M92.6,84.2c24.9,0,45.4,30.7,47.1,69.6c-12.9,10.2-29.3,16.3-47.1,16.3s-34.1-6.1-47.1-16.3
	C47.2,114.9,67.6,84.2,92.6,84.2z"/>
<path class="st4" d="M74.4,69.8c1.4-0.4,8.7-12.3,15.2-11.9c1,1.8,1.7,3.7,2.1,5.7L96,85.4l0,0.2l-11.4,3.6L74.4,69.8z"/>
<path class="st4" d="M96.5,175.2c4.6,0,8.4-1.9,8.4-4.2s-3.8-4.2-8.4-4.2s-8.4,1.9-8.4,4.2C88.1,173.3,91.9,175.2,96.5,175.2z"/>
<path class="st3" d="M81.8,17c-6.5,20.3-16.6,21-16.2,35.9c-6.2-1.8-11.3-6.4-13.3-12.8C49,29.7,55.1,18.7,65.7,15.4
	C71.3,13.6,77.1,14.4,81.8,17z"/>
<ellipse transform="matrix(0.8627 -0.5058 0.5058 0.8627 -10.4216 39.591)" class="st2" cx="67.7" cy="39" rx="3.7" ry="5.8"/>
<path class="st5" d="M44.6,7.3c-2.2,26.7,12.4,58.5,31.8,79.6c-0.2,0.1-0.3,0.2-0.5,0.2c-16.4,7-33.8,7.8-49.7,3.6
	C17,66.1,12.1,19.8,44.6,7.3z"/>
<ellipse transform="matrix(0.9546 -0.298 0.298 0.9546 -4.943 26.8759)" class="st6" cx="85.7" cy="29.6" rx="1.4" ry="2.5"/>
<path class="st0" d="M91.5,36.1c-3,0.9-6,1.7-8.1,2c2.2,1.4,4.7,1.9,7.2,1.8C91.1,38.6,91.4,37.3,91.5,36.1z"/>
<rect x="118.1" y="39.5" transform="matrix(0.9297 -0.3683 0.3683 0.9297 -6.9034 48.4571)" class="st4" width="10.7" height="5.7"/>
<path class="st6" d="M140.8,169.8l-2.6-55.1l0-12.9l0-4.3H153c-1.1,24.1-2.2,48.2-3.2,72.3C146.8,169.8,143.8,169.8,140.8,169.8z"/>
<polygon class="st6" points="138.2,97.5 138.4,97.5 138.2,101.8 138.2,101.8 "/>
<polygon class="st7" points="130.6,101.6 153.7,92.5 155.8,97 132.5,106.3 "/>
<polygon class="st6" points="155.1,95.5 128.3,39.7 121.4,44.4 121.8,77.3 131.8,104.6 "/>
<path class="st4" d="M118.9,42.4c6,18.4,9.8,26.9,4.3,36.4l-3.1-7.7l-0.7-22.3l-1.9-7.2L118.9,42.4z"/>
<path class="st6" d="M117.8,40.3l4.7,11.6l0.2,2l1.4,19.1l-0.4,10.7l-4.1-13.1l-0.2-21.8l-1.8-6.2c-0.3-0.9-2.3-4.2-2.3-4.2
	L117.8,40.3z"/>
<path class="st7" d="M121,47.2c-8.2,10.7-22.5,24.3-37.4,32l2.2,4c14.8-5.3,33.6-17.8,40.8-25.3C135.3,49.1,129.3,36.4,121,47.2z"/>
<path class="st2" d="M82.4,76.7c-1.5,0.7-1.7,1.6-0.8,2.5c-2.4,0.7-3.6,3.1-3,4.3c1,2.3,4.4,3.1,7.6,1.7c3.2-1.4,4.9-4.4,3.9-6.8
	C89,76.1,85.6,75.3,82.4,76.7z"/>
<path class="st7" d="M140.6,175.2c5.1,0,9.2-2.1,9.2-4.6s-4.1-4.6-9.2-4.6c-5.1,0-9.2,2.1-9.2,4.6
	C131.4,173.1,135.5,175.2,140.6,175.2z"/>
<path class="st2" d="M81.2,57.1c12.3,0.8,30.2-1,44.4-6.7l1.5,3.9c-12.5,7-32.3,12.5-41.8,13C73.9,68.1,68.8,56.4,81.2,57.1z"/>
<path class="st2" d="M124.6,48.2c1.4-0.7,2.1-0.2,2.2,0.9c1.9-1.2,4.3-0.6,4.8,0.5c1,2.1-0.5,4.9-3.4,6.3c-2.9,1.3-6,0.7-7-1.4
	C120.2,52.3,121.7,49.5,124.6,48.2z"/>
<path class="st3" d="M129.6,13.1c-17.5-4.5-41.8,17.3-48.2-3.2c8.6,3.5,9.7,0.3,18.1-3.9C108,1.8,120.5,1.1,129.6,13.1z"/>
<path class="st3" d="M130.6,13.7c-16.5-7.4-44.1,10.1-47-11.2c7.9,4.9,9.5,1.9,18.5-0.8C111.1-1,123.6,0.4,130.6,13.7z"/>
<ellipse transform="matrix(0.9479 -0.3187 0.3187 0.9479 -0.9252 37.3799)" class="st2" cx="113.8" cy="21.5" rx="22.2" ry="21.4"/>
<path class="st3" d="M93.7,12.9c10,12.3,37.8,9,37.5,21.5c4.4-5.5,6-13,3.6-20C131,3.2,118.5-2.7,106.9,1.2
	C100.8,3.2,96.2,7.6,93.7,12.9z"/>
<ellipse transform="matrix(0.9953 -9.650317e-02 9.650317e-02 0.9953 -1.7018 11.7262)" class="st2" cx="120.4" cy="23.5" rx="4" ry="6.3"/>
<ellipse transform="matrix(0.9479 -0.3187 0.3187 0.9479 -3.386 32.7524)" class="st6" cx="98.4" cy="26.7" rx="1.5" ry="2.7"/>
<path class="st0" d="M97.3,36.2c3.3-1.1,6.4-2.4,8.4-3.5c-1,2.6-3,4.8-5.3,6.2C99.3,38.1,98.3,37.2,97.3,36.2z"/>
<path class="st3" d="M91.6,18.8c5-0.2,9.8,0.1,16.3,2.4c7.1,2.5,12.8-22.1,3.6-21.2C102.3,1,92,4,91.6,18.8z"/>
</svg>
