<?xml version="1.0" encoding="utf-8"?>
<svg version="1.1" id="_x31_" xmlns="http://www.w3.org/2000/svg" xmlns:xlink="http://www.w3.org/1999/xlink" x="0px" y="0px"
	 viewBox="0 0 512 512" style="enable-background:new 0 0 512 512;" xml:space="preserve">
<style type="text/css">
	.st0{fill:#EAC71C;}
	.st1{fill:#EDE21B;}
	.st2{fill:#EF8229;}
	.st3{fill:#F29F26;}
	.st4{fill:#5ABCE2;}
</style>
<path id="_x36_" class="st0" d="M408.5,326.4c5.8-16.6,8.9-34.5,8.9-53.1c0-89.1-72.3-161.4-161.4-161.4
	c-89.1,0-161.4,72.3-161.4,161.4c0,18.6,3.2,36.4,8.9,53.1H408.5z"/>
<path id="_x35_" class="st1" d="M408.5,326.4c5.8-16.6,8.9-34.5,8.9-53.1c0-89.1-72.3-161.4-161.4-161.4c-5.2,0-10.3,0.3-15.4,0.7
	c-38.6,29.8-63.5,76.6-63.5,129.1c0,31,8.7,60,23.7,84.6H408.5L408.5,326.4z M256,83.2c-4.8,0-8.6-3.9-8.6-8.6V25
	c0-4.8,3.9-8.6,8.6-8.6c4.8,0,8.6,3.9,8.6,8.6v49.6C264.6,79.4,260.8,83.2,256,83.2z M157.1,109.7c-3,0-5.9-1.5-7.5-4.3l-24.8-43
	c-2.4-4.1-1-9.4,3.2-11.8c4.1-2.4,9.4-1,11.8,3.2l24.8,43c2.4,4.1,1,9.4-3.2,11.8C160.1,109.3,158.6,109.7,157.1,109.7z M84.8,182.1
	c-1.5,0-2.9-0.4-4.3-1.2l-43-24.8c-4.1-2.4-5.5-7.7-3.2-11.8c2.4-4.1,7.7-5.5,11.8-3.2l43,24.8c4.1,2.4,5.5,7.7,3.2,11.8
	C90.6,180.5,87.7,182.1,84.8,182.1z M58.3,281H8.6c-4.8,0-8.6-3.9-8.6-8.6s3.9-8.6,8.6-8.6h49.6c4.8,0,8.6,3.9,8.6,8.6
	S63,281,58.3,281z M503.4,281h-49.6c-4.8,0-8.6-3.9-8.6-8.6s3.9-8.6,8.6-8.6h49.6c4.8,0,8.6,3.9,8.6,8.6S508.1,281,503.4,281z
	 M427.2,182.1c-3,0-5.9-1.5-7.5-4.3c-2.4-4.1-1-9.4,3.2-11.8l43-24.8c4.1-2.4,9.4-1,11.8,3.2s1,9.4-3.2,11.8l-43,24.8
	C430.2,181.7,428.7,182.1,427.2,182.1z M354.9,109.7c-1.5,0-2.9-0.4-4.3-1.2c-4.1-2.4-5.5-7.7-3.2-11.8l24.8-43
	c2.4-4.1,7.7-5.5,11.8-3.2s5.5,7.7,3.2,11.8l-24.8,43C360.7,108.2,357.8,109.7,354.9,109.7z"/>
<path id="_x34_" class="st2" d="M361,326.4c7.8-15.7,12.2-33.4,12.2-52.1c0-17.5-3.8-34.1-10.7-49l-17.8-27.6
	c-21.5-24.8-53.2-40.6-88.7-40.6c-64.7,0-117.2,52.5-117.2,117.2c0,18.7,4.4,36.4,12.2,52.1L361,326.4L361,326.4z"/>
<path id="_x33_" class="st3" d="M361,326.4c7.8-15.7,12.2-33.4,12.2-52.1c0-17.5-3.8-34.1-10.7-49l-17.8-27.6
	c-21.5-24.8-53.2-40.6-88.7-40.6c-24.3,0-46.8,7.4-65.5,20c-8.6,19.8-13.4,41.7-13.4,64.7c0,31,8.7,60,23.7,84.6L361,326.4
	L361,326.4z"/>
<path id="_x32_" class="st4" d="M473,393.6h-29.1c-4.8,0-8.6-3.9-8.6-8.6s3.9-8.6,8.6-8.6H473c4.8,0,8.6,3.9,8.6,8.6
	S477.8,393.6,473,393.6z M415.9,393.6H39c-4.8,0-8.6-3.9-8.6-8.6s3.9-8.6,8.6-8.6h376.9c4.8,0,8.6,3.9,8.6,8.6
	S420.6,393.6,415.9,393.6z M432.7,444.7H192.4c-4.8,0-8.6-3.9-8.6-8.6s3.9-8.6,8.6-8.6h240.2c4.8,0,8.6,3.9,8.6,8.6
	C441.3,440.8,437.4,444.7,432.7,444.7z M163.3,444.7h-84c-4.8,0-8.6-3.9-8.6-8.6s3.9-8.6,8.6-8.6h84c4.8,0,8.6,3.9,8.6,8.6
	S168.1,444.7,163.3,444.7z M389.1,495.7h-97.4c-4.8,0-8.6-3.9-8.6-8.6s3.9-8.6,8.6-8.6h97.4c4.8,0,8.6,3.9,8.6,8.6
	S393.9,495.7,389.1,495.7z M261.5,495.7H122.9c-4.8,0-8.6-3.9-8.6-8.6s3.9-8.6,8.6-8.6h138.6c4.8,0,8.6,3.9,8.6,8.6
	S266.3,495.7,261.5,495.7z M503.4,342.6H8.6c-4.8,0-8.6-3.9-8.6-8.6s3.9-8.6,8.6-8.6h494.7c4.8,0,8.6,3.9,8.6,8.6
	C512,338.7,508.1,342.6,503.4,342.6z"/>
</svg>
