<?xml version="1.0" encoding="utf-8"?>
<svg version="1.1" id="_x31_" xmlns="http://www.w3.org/2000/svg" xmlns:xlink="http://www.w3.org/1999/xlink" x="0px" y="0px"
	 viewBox="0 0 280 280" style="enable-background:new 0 0 280 280;" xml:space="preserve">
<style type="text/css">
	<!--.st0{fill:#24C7AA;}-->
	.st0{fill:#CDCECF;}
	.st1{fill:#E4E5E6;}
	.st2{fill:#5B717C;}
	.st3{fill:#2B414D;}
	.st4{fill:#FFFFFF;}
	.st5{fill:#CDCECF;}
</style>
<path id="_x37_" class="st0" d="M17.5,52.5h245c9.7,0,17.5,7.8,17.5,17.5v140c0,9.7-7.8,17.5-17.5,17.5h-245
	C7.8,227.5,0,219.7,0,210V70C0,60.3,7.8,52.5,17.5,52.5z"/>
<path id="_x36_" class="st1" d="M201.3,35h35c4.8,0,8.8,3.9,8.8,8.8v8.8h-52.5v-8.8C192.5,38.9,196.4,35,201.3,35z M122.5,35
	c58,0,105,47,105,105s-47,105-105,105s-105-47-105-105S64.5,35,122.5,35z"/>
<path id="_x35_" class="st2" d="M122.5,61.3c43.5,0,78.8,35.3,78.8,78.8s-35.3,78.8-78.8,78.8S43.8,183.5,43.8,140
	S79,61.3,122.5,61.3z"/>
<path id="_x34_" class="st3" d="M122.5,87.5c29,0,52.5,23.5,52.5,52.5s-23.5,52.5-52.5,52.5S70,169,70,140S93.5,87.5,122.5,87.5z"/>
<path id="_x33_" class="st4" d="M144.4,105c7.2,0,13.1,5.9,13.1,13.1c0,7.3-5.9,13.1-13.1,13.1s-13.1-5.9-13.1-13.1
	S137.1,105,144.4,105z M249.4,70c7.2,0,13.1,5.9,13.1,13.1s-5.9,13.1-13.1,13.1c-7.2,0-13.1-5.9-13.1-13.1
	C236.3,75.9,242.2,70,249.4,70z"/>
<path id="_x32_" class="st5" d="M201.3,35h8.8v17.5h-8.8V35z M218.8,35h8.8v17.5h-8.8V35z M236.3,35v17.5h8.8v-8.8
	C245,38.9,241.1,35,236.3,35z"/>
</svg>
