<?xml version="1.0" encoding="utf-8"?>
<!-- Generator: Adobe Illustrator 23.0.3, SVG Export Plug-In . SVG Version: 6.00 Build 0)  -->
<svg version="1.1" id="Capa_1" xmlns="http://www.w3.org/2000/svg" xmlns:xlink="http://www.w3.org/1999/xlink" x="0px" y="0px"
	 viewBox="0 0 480 480" style="enable-background:new 0 0 480 480;" xml:space="preserve">
<style type="text/css">
	.st0{fill:#FED588;}
	.st1{fill:#D93955;}
</style>
<path class="st0" d="M479.1,308l-35-68l35-68c1-1.9,1.2-4.1,0.5-6.2c-0.7-2-2.1-3.7-4-4.7L405,125.6l-13.8-74.7
	c-0.8-4.2-4.7-7-8.9-6.5L303,55.1l-57.6-53c-3.1-2.8-7.8-2.8-10.8,0l-57.6,53L97.7,44.4c-4.2-0.6-8.2,2.3-8.9,6.5L75,125.6
	L4.4,161.2c-3.9,2-5.5,6.8-3.5,10.7c0,0,0,0,0,0.1l35,68l-35,68c-2,3.9-0.5,8.8,3.5,10.8c0,0,0,0,0.1,0L75,354.4l13.8,74.7
	c0.7,4.2,4.7,7.1,8.9,6.5l79.4-10.7l57.5,52.9c3.1,2.8,7.8,2.8,10.8,0l57.5-52.9l79.4,10.7c4.2,0.6,8.2-2.3,8.9-6.5l13.8-74.7
	l70.6-35.6C479.6,316.8,481.1,312,479.1,308C479.1,308.1,479.1,308,479.1,308z"/>
<path class="st1" d="M324.9,166.5L324.9,166.5L166.5,324.9c-3.1,3.1-8.2,3.1-11.3,0s-3.1-8.2,0-11.3l158.4-158.4
	c3.1-3.1,8.2-3.1,11.3,0C328,158.3,328,163.3,324.9,166.5z M201,201c-9.5,9.1-24.4,9.1-33.9,0c-9.4-9.4-9.4-24.6,0-33.9l0,0
	c9.4-9.4,24.6-9.4,33.9,0C210.4,176.4,210.3,191.6,201,201z M313,313L313,313c-9.5,9.1-24.4,9.1-33.9,0c-9.4-9.4-9.4-24.6,0-33.9
	c9.4-9.4,24.6-9.4,33.9,0C322.3,288.4,322.3,303.6,313,313z"/>
</svg>
